%TF.GenerationSoftware,KiCad,Pcbnew,9.0.5*%
%TF.CreationDate,2026-03-27T22:44:30+05:30*%
%TF.ProjectId,Queaky Steam Toy,51756561-6b79-4205-9374-65616d20546f,rev?*%
%TF.SameCoordinates,Original*%
%TF.FileFunction,Copper,L1,Top*%
%TF.FilePolarity,Positive*%
%FSLAX46Y46*%
G04 Gerber Fmt 4.6, Leading zero omitted, Abs format (unit mm)*
G04 Created by KiCad (PCBNEW 9.0.5) date 2026-03-27 22:44:30*
%MOMM*%
%LPD*%
G01*
G04 APERTURE LIST*
G04 Aperture macros list*
%AMRoundRect*
0 Rectangle with rounded corners*
0 $1 Rounding radius*
0 $2 $3 $4 $5 $6 $7 $8 $9 X,Y pos of 4 corners*
0 Add a 4 corners polygon primitive as box body*
4,1,4,$2,$3,$4,$5,$6,$7,$8,$9,$2,$3,0*
0 Add four circle primitives for the rounded corners*
1,1,$1+$1,$2,$3*
1,1,$1+$1,$4,$5*
1,1,$1+$1,$6,$7*
1,1,$1+$1,$8,$9*
0 Add four rect primitives between the rounded corners*
20,1,$1+$1,$2,$3,$4,$5,0*
20,1,$1+$1,$4,$5,$6,$7,0*
20,1,$1+$1,$6,$7,$8,$9,0*
20,1,$1+$1,$8,$9,$2,$3,0*%
G04 Aperture macros list end*
%TA.AperFunction,ComponentPad*%
%ADD10RoundRect,0.250001X0.949999X-0.949999X0.949999X0.949999X-0.949999X0.949999X-0.949999X-0.949999X0*%
%TD*%
%TA.AperFunction,ComponentPad*%
%ADD11C,2.400000*%
%TD*%
%TA.AperFunction,ComponentPad*%
%ADD12RoundRect,0.250000X-0.550000X0.550000X-0.550000X-0.550000X0.550000X-0.550000X0.550000X0.550000X0*%
%TD*%
%TA.AperFunction,ComponentPad*%
%ADD13C,1.600000*%
%TD*%
%TA.AperFunction,ComponentPad*%
%ADD14RoundRect,0.250001X-0.949999X-0.949999X0.949999X-0.949999X0.949999X0.949999X-0.949999X0.949999X0*%
%TD*%
%TA.AperFunction,ComponentPad*%
%ADD15RoundRect,0.250000X0.550000X-0.550000X0.550000X0.550000X-0.550000X0.550000X-0.550000X-0.550000X0*%
%TD*%
%TA.AperFunction,ComponentPad*%
%ADD16C,2.000000*%
%TD*%
G04 APERTURE END LIST*
D10*
%TO.P,+ Out -,1,Pin_1*%
%TO.N,Net-(J2-Pin_1)*%
X129872500Y-99155000D03*
D11*
%TO.P,+ Out -,2,Pin_2*%
%TO.N,/TR*%
X129872500Y-94075000D03*
%TD*%
D12*
%TO.P,U1,1,GND*%
%TO.N,GND*%
X149310000Y-92695000D03*
D13*
%TO.P,U1,2,TR*%
%TO.N,/TR*%
X146770000Y-92695000D03*
%TO.P,U1,3,Q*%
%TO.N,/out*%
X144230000Y-92695000D03*
%TO.P,U1,4,R*%
%TO.N,VCC*%
X141690000Y-92695000D03*
%TO.P,U1,5,CV*%
%TO.N,unconnected-(U1-CV-Pad5)*%
X141690000Y-100315000D03*
%TO.P,U1,6,THR*%
%TO.N,/TR*%
X144230000Y-100315000D03*
%TO.P,U1,7,DIS*%
%TO.N,/DIS*%
X146770000Y-100315000D03*
%TO.P,U1,8,VCC*%
%TO.N,VCC*%
X149310000Y-100315000D03*
%TD*%
D14*
%TO.P,+ Buzz -,1,Pin_1*%
%TO.N,Net-(J3-Pin_1)*%
X142920000Y-77000000D03*
D11*
%TO.P,+ Buzz -,2,Pin_2*%
%TO.N,GND*%
X148000000Y-77000000D03*
%TD*%
D15*
%TO.P,C2,1*%
%TO.N,/out*%
X128730000Y-82217651D03*
D13*
%TO.P,C2,2*%
%TO.N,Net-(J3-Pin_1)*%
X128730000Y-77217651D03*
%TD*%
%TO.P,R3,1*%
%TO.N,/DIS*%
X140850000Y-112315000D03*
%TO.P,R3,2*%
%TO.N,Net-(J2-Pin_1)*%
X125610000Y-112315000D03*
%TD*%
%TO.P,R1,1*%
%TO.N,VCC*%
X166350000Y-112315000D03*
%TO.P,R1,2*%
%TO.N,/DIS*%
X151110000Y-112315000D03*
%TD*%
D10*
%TO.P,+ Batt -,1,Pin_1*%
%TO.N,VCC*%
X161372500Y-99155000D03*
D11*
%TO.P,+ Batt -,2,Pin_2*%
%TO.N,GND*%
X161372500Y-94075000D03*
%TD*%
D16*
%TO.P,C1,1*%
%TO.N,/TR*%
X156230000Y-79315000D03*
%TO.P,C1,2*%
%TO.N,GND*%
X166230000Y-79315000D03*
%TD*%
%TA.AperFunction,Conductor*%
%TO.N,GND*%
G36*
X174912087Y-66652719D02*
G01*
X174957842Y-66705523D01*
X174969048Y-66757034D01*
X174969048Y-126468034D01*
X174949363Y-126535073D01*
X174896559Y-126580828D01*
X174845048Y-126592034D01*
X115134048Y-126592034D01*
X115067009Y-126572349D01*
X115021254Y-126519545D01*
X115010048Y-126468034D01*
X115010048Y-123378711D01*
X116149500Y-123378711D01*
X116149500Y-123621288D01*
X116181161Y-123861785D01*
X116243947Y-124096104D01*
X116336773Y-124320205D01*
X116336776Y-124320212D01*
X116458064Y-124530289D01*
X116458066Y-124530292D01*
X116458067Y-124530293D01*
X116605733Y-124722736D01*
X116605739Y-124722743D01*
X116777256Y-124894260D01*
X116777262Y-124894265D01*
X116969711Y-125041936D01*
X117179788Y-125163224D01*
X117403900Y-125256054D01*
X117638211Y-125318838D01*
X117818586Y-125342584D01*
X117878711Y-125350500D01*
X117878712Y-125350500D01*
X118121289Y-125350500D01*
X118169388Y-125344167D01*
X118361789Y-125318838D01*
X118596100Y-125256054D01*
X118820212Y-125163224D01*
X119030289Y-125041936D01*
X119222738Y-124894265D01*
X119394265Y-124722738D01*
X119541936Y-124530289D01*
X119663224Y-124320212D01*
X119756054Y-124096100D01*
X119818838Y-123861789D01*
X119850500Y-123621288D01*
X119850500Y-123378712D01*
X119850500Y-123378711D01*
X170149500Y-123378711D01*
X170149500Y-123621288D01*
X170181161Y-123861785D01*
X170243947Y-124096104D01*
X170336773Y-124320205D01*
X170336776Y-124320212D01*
X170458064Y-124530289D01*
X170458066Y-124530292D01*
X170458067Y-124530293D01*
X170605733Y-124722736D01*
X170605739Y-124722743D01*
X170777256Y-124894260D01*
X170777262Y-124894265D01*
X170969711Y-125041936D01*
X171179788Y-125163224D01*
X171403900Y-125256054D01*
X171638211Y-125318838D01*
X171818586Y-125342584D01*
X171878711Y-125350500D01*
X171878712Y-125350500D01*
X172121289Y-125350500D01*
X172169388Y-125344167D01*
X172361789Y-125318838D01*
X172596100Y-125256054D01*
X172820212Y-125163224D01*
X173030289Y-125041936D01*
X173222738Y-124894265D01*
X173394265Y-124722738D01*
X173541936Y-124530289D01*
X173663224Y-124320212D01*
X173756054Y-124096100D01*
X173818838Y-123861789D01*
X173850500Y-123621288D01*
X173850500Y-123378712D01*
X173818838Y-123138211D01*
X173756054Y-122903900D01*
X173663224Y-122679788D01*
X173541936Y-122469711D01*
X173394265Y-122277262D01*
X173394260Y-122277256D01*
X173222743Y-122105739D01*
X173222736Y-122105733D01*
X173030293Y-121958067D01*
X173030292Y-121958066D01*
X173030289Y-121958064D01*
X172820212Y-121836776D01*
X172820205Y-121836773D01*
X172596104Y-121743947D01*
X172361785Y-121681161D01*
X172121289Y-121649500D01*
X172121288Y-121649500D01*
X171878712Y-121649500D01*
X171878711Y-121649500D01*
X171638214Y-121681161D01*
X171403895Y-121743947D01*
X171179794Y-121836773D01*
X171179785Y-121836777D01*
X170969706Y-121958067D01*
X170777263Y-122105733D01*
X170777256Y-122105739D01*
X170605739Y-122277256D01*
X170605733Y-122277263D01*
X170458067Y-122469706D01*
X170336777Y-122679785D01*
X170336773Y-122679794D01*
X170243947Y-122903895D01*
X170181161Y-123138214D01*
X170149500Y-123378711D01*
X119850500Y-123378711D01*
X119818838Y-123138211D01*
X119756054Y-122903900D01*
X119663224Y-122679788D01*
X119541936Y-122469711D01*
X119394265Y-122277262D01*
X119394260Y-122277256D01*
X119222743Y-122105739D01*
X119222736Y-122105733D01*
X119030293Y-121958067D01*
X119030292Y-121958066D01*
X119030289Y-121958064D01*
X118820212Y-121836776D01*
X118820205Y-121836773D01*
X118596104Y-121743947D01*
X118361785Y-121681161D01*
X118121289Y-121649500D01*
X118121288Y-121649500D01*
X117878712Y-121649500D01*
X117878711Y-121649500D01*
X117638214Y-121681161D01*
X117403895Y-121743947D01*
X117179794Y-121836773D01*
X117179785Y-121836777D01*
X116969706Y-121958067D01*
X116777263Y-122105733D01*
X116777256Y-122105739D01*
X116605739Y-122277256D01*
X116605733Y-122277263D01*
X116458067Y-122469706D01*
X116336777Y-122679785D01*
X116336773Y-122679794D01*
X116243947Y-122903895D01*
X116181161Y-123138214D01*
X116149500Y-123378711D01*
X115010048Y-123378711D01*
X115010048Y-112211530D01*
X124559500Y-112211530D01*
X124559500Y-112418469D01*
X124599868Y-112621412D01*
X124599870Y-112621420D01*
X124679058Y-112812596D01*
X124794024Y-112984657D01*
X124940342Y-113130975D01*
X124940345Y-113130977D01*
X125112402Y-113245941D01*
X125303580Y-113325130D01*
X125506530Y-113365499D01*
X125506534Y-113365500D01*
X125506535Y-113365500D01*
X125713466Y-113365500D01*
X125713467Y-113365499D01*
X125916420Y-113325130D01*
X126107598Y-113245941D01*
X126279655Y-113130977D01*
X126425977Y-112984655D01*
X126540941Y-112812598D01*
X126620130Y-112621420D01*
X126660500Y-112418465D01*
X126660500Y-112211535D01*
X126660499Y-112211530D01*
X139799500Y-112211530D01*
X139799500Y-112418469D01*
X139839868Y-112621412D01*
X139839870Y-112621420D01*
X139919058Y-112812596D01*
X140034024Y-112984657D01*
X140180342Y-113130975D01*
X140180345Y-113130977D01*
X140352402Y-113245941D01*
X140543580Y-113325130D01*
X140746530Y-113365499D01*
X140746534Y-113365500D01*
X140746535Y-113365500D01*
X140953466Y-113365500D01*
X140953467Y-113365499D01*
X141156420Y-113325130D01*
X141347598Y-113245941D01*
X141519655Y-113130977D01*
X141665977Y-112984655D01*
X141780941Y-112812598D01*
X141860130Y-112621420D01*
X141900500Y-112418465D01*
X141900500Y-112211535D01*
X141900499Y-112211530D01*
X150059500Y-112211530D01*
X150059500Y-112418469D01*
X150099868Y-112621412D01*
X150099870Y-112621420D01*
X150179058Y-112812596D01*
X150294024Y-112984657D01*
X150440342Y-113130975D01*
X150440345Y-113130977D01*
X150612402Y-113245941D01*
X150803580Y-113325130D01*
X151006530Y-113365499D01*
X151006534Y-113365500D01*
X151006535Y-113365500D01*
X151213466Y-113365500D01*
X151213467Y-113365499D01*
X151416420Y-113325130D01*
X151607598Y-113245941D01*
X151779655Y-113130977D01*
X151925977Y-112984655D01*
X152040941Y-112812598D01*
X152120130Y-112621420D01*
X152160500Y-112418465D01*
X152160500Y-112211535D01*
X152160499Y-112211530D01*
X165299500Y-112211530D01*
X165299500Y-112418469D01*
X165339868Y-112621412D01*
X165339870Y-112621420D01*
X165419058Y-112812596D01*
X165534024Y-112984657D01*
X165680342Y-113130975D01*
X165680345Y-113130977D01*
X165852402Y-113245941D01*
X166043580Y-113325130D01*
X166246530Y-113365499D01*
X166246534Y-113365500D01*
X166246535Y-113365500D01*
X166453466Y-113365500D01*
X166453467Y-113365499D01*
X166656420Y-113325130D01*
X166847598Y-113245941D01*
X167019655Y-113130977D01*
X167165977Y-112984655D01*
X167280941Y-112812598D01*
X167360130Y-112621420D01*
X167400500Y-112418465D01*
X167400500Y-112211535D01*
X167360130Y-112008580D01*
X167280941Y-111817402D01*
X167165977Y-111645345D01*
X167165975Y-111645342D01*
X167019657Y-111499024D01*
X166933626Y-111441541D01*
X166847598Y-111384059D01*
X166656420Y-111304870D01*
X166656412Y-111304868D01*
X166453469Y-111264500D01*
X166453465Y-111264500D01*
X166246535Y-111264500D01*
X166246530Y-111264500D01*
X166043587Y-111304868D01*
X166043579Y-111304870D01*
X165852403Y-111384058D01*
X165680342Y-111499024D01*
X165534024Y-111645342D01*
X165419058Y-111817403D01*
X165339870Y-112008579D01*
X165339868Y-112008587D01*
X165299500Y-112211530D01*
X152160499Y-112211530D01*
X152120130Y-112008580D01*
X152040941Y-111817402D01*
X151925977Y-111645345D01*
X151925975Y-111645342D01*
X151779657Y-111499024D01*
X151693626Y-111441541D01*
X151607598Y-111384059D01*
X151416420Y-111304870D01*
X151416412Y-111304868D01*
X151213469Y-111264500D01*
X151213465Y-111264500D01*
X151006535Y-111264500D01*
X151006530Y-111264500D01*
X150803587Y-111304868D01*
X150803579Y-111304870D01*
X150612403Y-111384058D01*
X150440342Y-111499024D01*
X150294024Y-111645342D01*
X150179058Y-111817403D01*
X150099870Y-112008579D01*
X150099868Y-112008587D01*
X150059500Y-112211530D01*
X141900499Y-112211530D01*
X141860130Y-112008580D01*
X141780941Y-111817402D01*
X141665977Y-111645345D01*
X141665975Y-111645342D01*
X141519657Y-111499024D01*
X141433626Y-111441541D01*
X141347598Y-111384059D01*
X141156420Y-111304870D01*
X141156412Y-111304868D01*
X140953469Y-111264500D01*
X140953465Y-111264500D01*
X140746535Y-111264500D01*
X140746530Y-111264500D01*
X140543587Y-111304868D01*
X140543579Y-111304870D01*
X140352403Y-111384058D01*
X140180342Y-111499024D01*
X140034024Y-111645342D01*
X139919058Y-111817403D01*
X139839870Y-112008579D01*
X139839868Y-112008587D01*
X139799500Y-112211530D01*
X126660499Y-112211530D01*
X126620130Y-112008580D01*
X126540941Y-111817402D01*
X126425977Y-111645345D01*
X126425975Y-111645342D01*
X126279657Y-111499024D01*
X126193626Y-111441541D01*
X126107598Y-111384059D01*
X125916420Y-111304870D01*
X125916412Y-111304868D01*
X125713469Y-111264500D01*
X125713465Y-111264500D01*
X125506535Y-111264500D01*
X125506530Y-111264500D01*
X125303587Y-111304868D01*
X125303579Y-111304870D01*
X125112403Y-111384058D01*
X124940342Y-111499024D01*
X124794024Y-111645342D01*
X124679058Y-111817403D01*
X124599870Y-112008579D01*
X124599868Y-112008587D01*
X124559500Y-112211530D01*
X115010048Y-112211530D01*
X115010048Y-98157136D01*
X128422000Y-98157136D01*
X128422000Y-100152863D01*
X128422001Y-100152882D01*
X128428408Y-100212481D01*
X128478702Y-100347327D01*
X128478703Y-100347328D01*
X128478704Y-100347330D01*
X128564954Y-100462546D01*
X128680170Y-100548796D01*
X128680171Y-100548796D01*
X128680172Y-100548797D01*
X128815018Y-100599091D01*
X128815017Y-100599091D01*
X128821945Y-100599835D01*
X128874628Y-100605500D01*
X128874637Y-100605500D01*
X130870363Y-100605500D01*
X130870372Y-100605500D01*
X130929982Y-100599091D01*
X131064830Y-100548796D01*
X131180046Y-100462546D01*
X131266296Y-100347330D01*
X131316591Y-100212482D01*
X131316693Y-100211530D01*
X140639500Y-100211530D01*
X140639500Y-100418469D01*
X140679868Y-100621412D01*
X140679870Y-100621420D01*
X140759058Y-100812596D01*
X140874024Y-100984657D01*
X141020342Y-101130975D01*
X141020345Y-101130977D01*
X141192402Y-101245941D01*
X141383580Y-101325130D01*
X141586530Y-101365499D01*
X141586534Y-101365500D01*
X141586535Y-101365500D01*
X141793466Y-101365500D01*
X141793467Y-101365499D01*
X141996420Y-101325130D01*
X142187598Y-101245941D01*
X142359655Y-101130977D01*
X142505977Y-100984655D01*
X142620941Y-100812598D01*
X142700130Y-100621420D01*
X142740500Y-100418465D01*
X142740500Y-100211535D01*
X142740499Y-100211530D01*
X143179500Y-100211530D01*
X143179500Y-100418469D01*
X143219868Y-100621412D01*
X143219870Y-100621420D01*
X143299058Y-100812596D01*
X143414024Y-100984657D01*
X143560342Y-101130975D01*
X143560345Y-101130977D01*
X143732402Y-101245941D01*
X143923580Y-101325130D01*
X144126530Y-101365499D01*
X144126534Y-101365500D01*
X144126535Y-101365500D01*
X144333466Y-101365500D01*
X144333467Y-101365499D01*
X144536420Y-101325130D01*
X144727598Y-101245941D01*
X144899655Y-101130977D01*
X145045977Y-100984655D01*
X145160941Y-100812598D01*
X145240130Y-100621420D01*
X145280500Y-100418465D01*
X145280500Y-100211535D01*
X145280499Y-100211530D01*
X145719500Y-100211530D01*
X145719500Y-100418469D01*
X145759868Y-100621412D01*
X145759870Y-100621420D01*
X145839058Y-100812596D01*
X145954024Y-100984657D01*
X146100342Y-101130975D01*
X146100345Y-101130977D01*
X146272402Y-101245941D01*
X146463580Y-101325130D01*
X146666530Y-101365499D01*
X146666534Y-101365500D01*
X146666535Y-101365500D01*
X146873466Y-101365500D01*
X146873467Y-101365499D01*
X147076420Y-101325130D01*
X147267598Y-101245941D01*
X147439655Y-101130977D01*
X147585977Y-100984655D01*
X147700941Y-100812598D01*
X147780130Y-100621420D01*
X147820500Y-100418465D01*
X147820500Y-100211535D01*
X147820499Y-100211530D01*
X148259500Y-100211530D01*
X148259500Y-100418469D01*
X148299868Y-100621412D01*
X148299870Y-100621420D01*
X148379058Y-100812596D01*
X148494024Y-100984657D01*
X148640342Y-101130975D01*
X148640345Y-101130977D01*
X148812402Y-101245941D01*
X149003580Y-101325130D01*
X149206530Y-101365499D01*
X149206534Y-101365500D01*
X149206535Y-101365500D01*
X149413466Y-101365500D01*
X149413467Y-101365499D01*
X149616420Y-101325130D01*
X149807598Y-101245941D01*
X149979655Y-101130977D01*
X150125977Y-100984655D01*
X150240941Y-100812598D01*
X150320130Y-100621420D01*
X150360500Y-100418465D01*
X150360500Y-100211535D01*
X150320130Y-100008580D01*
X150240941Y-99817402D01*
X150125977Y-99645345D01*
X150125975Y-99645342D01*
X149979657Y-99499024D01*
X149893626Y-99441541D01*
X149807598Y-99384059D01*
X149616420Y-99304870D01*
X149616412Y-99304868D01*
X149413469Y-99264500D01*
X149413465Y-99264500D01*
X149206535Y-99264500D01*
X149206530Y-99264500D01*
X149003587Y-99304868D01*
X149003579Y-99304870D01*
X148812403Y-99384058D01*
X148640342Y-99499024D01*
X148494024Y-99645342D01*
X148379058Y-99817403D01*
X148299870Y-100008579D01*
X148299868Y-100008587D01*
X148259500Y-100211530D01*
X147820499Y-100211530D01*
X147780130Y-100008580D01*
X147700941Y-99817402D01*
X147585977Y-99645345D01*
X147585975Y-99645342D01*
X147439657Y-99499024D01*
X147353626Y-99441541D01*
X147267598Y-99384059D01*
X147076420Y-99304870D01*
X147076412Y-99304868D01*
X146873469Y-99264500D01*
X146873465Y-99264500D01*
X146666535Y-99264500D01*
X146666530Y-99264500D01*
X146463587Y-99304868D01*
X146463579Y-99304870D01*
X146272403Y-99384058D01*
X146100342Y-99499024D01*
X145954024Y-99645342D01*
X145839058Y-99817403D01*
X145759870Y-100008579D01*
X145759868Y-100008587D01*
X145719500Y-100211530D01*
X145280499Y-100211530D01*
X145240130Y-100008580D01*
X145160941Y-99817402D01*
X145045977Y-99645345D01*
X145045975Y-99645342D01*
X144899657Y-99499024D01*
X144813626Y-99441541D01*
X144727598Y-99384059D01*
X144536420Y-99304870D01*
X144536412Y-99304868D01*
X144333469Y-99264500D01*
X144333465Y-99264500D01*
X144126535Y-99264500D01*
X144126530Y-99264500D01*
X143923587Y-99304868D01*
X143923579Y-99304870D01*
X143732403Y-99384058D01*
X143560342Y-99499024D01*
X143414024Y-99645342D01*
X143299058Y-99817403D01*
X143219870Y-100008579D01*
X143219868Y-100008587D01*
X143179500Y-100211530D01*
X142740499Y-100211530D01*
X142700130Y-100008580D01*
X142620941Y-99817402D01*
X142505977Y-99645345D01*
X142505975Y-99645342D01*
X142359657Y-99499024D01*
X142273626Y-99441541D01*
X142187598Y-99384059D01*
X141996420Y-99304870D01*
X141996412Y-99304868D01*
X141793469Y-99264500D01*
X141793465Y-99264500D01*
X141586535Y-99264500D01*
X141586530Y-99264500D01*
X141383587Y-99304868D01*
X141383579Y-99304870D01*
X141192403Y-99384058D01*
X141020342Y-99499024D01*
X140874024Y-99645342D01*
X140759058Y-99817403D01*
X140679870Y-100008579D01*
X140679868Y-100008587D01*
X140639500Y-100211530D01*
X131316693Y-100211530D01*
X131323000Y-100152872D01*
X131323000Y-98157136D01*
X159922000Y-98157136D01*
X159922000Y-100152863D01*
X159922001Y-100152882D01*
X159928408Y-100212481D01*
X159978702Y-100347327D01*
X159978703Y-100347328D01*
X159978704Y-100347330D01*
X160064954Y-100462546D01*
X160180170Y-100548796D01*
X160180171Y-100548796D01*
X160180172Y-100548797D01*
X160315018Y-100599091D01*
X160315017Y-100599091D01*
X160321945Y-100599835D01*
X160374628Y-100605500D01*
X160374637Y-100605500D01*
X162370363Y-100605500D01*
X162370372Y-100605500D01*
X162429982Y-100599091D01*
X162564830Y-100548796D01*
X162680046Y-100462546D01*
X162766296Y-100347330D01*
X162816591Y-100212482D01*
X162823000Y-100152872D01*
X162823000Y-98157128D01*
X162816591Y-98097518D01*
X162766296Y-97962670D01*
X162680046Y-97847454D01*
X162564830Y-97761204D01*
X162564828Y-97761203D01*
X162564827Y-97761202D01*
X162429981Y-97710908D01*
X162429982Y-97710908D01*
X162370382Y-97704501D01*
X162370380Y-97704500D01*
X162370372Y-97704500D01*
X160374628Y-97704500D01*
X160374620Y-97704500D01*
X160374617Y-97704501D01*
X160315018Y-97710908D01*
X160180172Y-97761202D01*
X160180170Y-97761204D01*
X160064954Y-97847454D01*
X159978704Y-97962670D01*
X159978702Y-97962672D01*
X159928408Y-98097518D01*
X159922001Y-98157117D01*
X159922000Y-98157136D01*
X131323000Y-98157136D01*
X131323000Y-98157128D01*
X131316591Y-98097518D01*
X131266296Y-97962670D01*
X131180046Y-97847454D01*
X131064830Y-97761204D01*
X131064828Y-97761203D01*
X131064827Y-97761202D01*
X130929981Y-97710908D01*
X130929982Y-97710908D01*
X130870382Y-97704501D01*
X130870380Y-97704500D01*
X130870372Y-97704500D01*
X128874628Y-97704500D01*
X128874620Y-97704500D01*
X128874617Y-97704501D01*
X128815018Y-97710908D01*
X128680172Y-97761202D01*
X128680170Y-97761204D01*
X128564954Y-97847454D01*
X128478704Y-97962670D01*
X128478702Y-97962672D01*
X128428408Y-98097518D01*
X128422001Y-98157117D01*
X128422000Y-98157136D01*
X115010048Y-98157136D01*
X115010048Y-93960837D01*
X128422000Y-93960837D01*
X128422000Y-94189162D01*
X128457715Y-94414660D01*
X128528270Y-94631803D01*
X128561185Y-94696401D01*
X128631921Y-94835228D01*
X128766121Y-95019937D01*
X128927563Y-95181379D01*
X129112272Y-95315579D01*
X129208384Y-95364550D01*
X129315696Y-95419229D01*
X129315698Y-95419229D01*
X129315701Y-95419231D01*
X129382567Y-95440957D01*
X129532839Y-95489784D01*
X129758338Y-95525500D01*
X129758343Y-95525500D01*
X129986662Y-95525500D01*
X130212160Y-95489784D01*
X130429299Y-95419231D01*
X130632728Y-95315579D01*
X130817437Y-95181379D01*
X130978879Y-95019937D01*
X131113079Y-94835228D01*
X131216731Y-94631799D01*
X131287284Y-94414660D01*
X131304122Y-94308351D01*
X131323000Y-94189162D01*
X131323000Y-93960837D01*
X131287284Y-93735339D01*
X131251738Y-93625941D01*
X131216731Y-93518201D01*
X131216729Y-93518198D01*
X131216729Y-93518196D01*
X131139206Y-93366049D01*
X131113079Y-93314772D01*
X130978879Y-93130063D01*
X130817437Y-92968621D01*
X130632728Y-92834421D01*
X130429303Y-92730770D01*
X130362424Y-92709040D01*
X130308338Y-92691466D01*
X130212160Y-92660215D01*
X129986662Y-92624500D01*
X129986657Y-92624500D01*
X129758343Y-92624500D01*
X129758338Y-92624500D01*
X129532839Y-92660215D01*
X129315696Y-92730770D01*
X129112271Y-92834421D01*
X128927561Y-92968622D01*
X128766122Y-93130061D01*
X128631921Y-93314771D01*
X128528270Y-93518196D01*
X128457715Y-93735339D01*
X128422000Y-93960837D01*
X115010048Y-93960837D01*
X115010048Y-92591530D01*
X140639500Y-92591530D01*
X140639500Y-92798469D01*
X140679868Y-93001412D01*
X140679870Y-93001420D01*
X140759058Y-93192596D01*
X140874024Y-93364657D01*
X141020342Y-93510975D01*
X141020345Y-93510977D01*
X141192402Y-93625941D01*
X141383580Y-93705130D01*
X141572182Y-93742645D01*
X141586530Y-93745499D01*
X141586534Y-93745500D01*
X141586535Y-93745500D01*
X141793466Y-93745500D01*
X141793467Y-93745499D01*
X141996420Y-93705130D01*
X142187598Y-93625941D01*
X142359655Y-93510977D01*
X142505977Y-93364655D01*
X142620941Y-93192598D01*
X142700130Y-93001420D01*
X142740500Y-92798465D01*
X142740500Y-92591535D01*
X142740499Y-92591530D01*
X143179500Y-92591530D01*
X143179500Y-92798469D01*
X143219868Y-93001412D01*
X143219870Y-93001420D01*
X143299058Y-93192596D01*
X143414024Y-93364657D01*
X143560342Y-93510975D01*
X143560345Y-93510977D01*
X143732402Y-93625941D01*
X143923580Y-93705130D01*
X144112182Y-93742645D01*
X144126530Y-93745499D01*
X144126534Y-93745500D01*
X144126535Y-93745500D01*
X144333466Y-93745500D01*
X144333467Y-93745499D01*
X144536420Y-93705130D01*
X144727598Y-93625941D01*
X144899655Y-93510977D01*
X145045977Y-93364655D01*
X145160941Y-93192598D01*
X145240130Y-93001420D01*
X145280500Y-92798465D01*
X145280500Y-92591535D01*
X145280499Y-92591530D01*
X145719500Y-92591530D01*
X145719500Y-92798469D01*
X145759868Y-93001412D01*
X145759870Y-93001420D01*
X145839058Y-93192596D01*
X145954024Y-93364657D01*
X146100342Y-93510975D01*
X146100345Y-93510977D01*
X146272402Y-93625941D01*
X146463580Y-93705130D01*
X146652182Y-93742645D01*
X146666530Y-93745499D01*
X146666534Y-93745500D01*
X146666535Y-93745500D01*
X146873466Y-93745500D01*
X146873467Y-93745499D01*
X147076420Y-93705130D01*
X147267598Y-93625941D01*
X147439655Y-93510977D01*
X147585977Y-93364655D01*
X147700941Y-93192598D01*
X147771440Y-93022398D01*
X147815280Y-92967996D01*
X147881574Y-92945931D01*
X147949273Y-92963210D01*
X147996884Y-93014347D01*
X148010000Y-93069851D01*
X148010000Y-93294970D01*
X148010001Y-93294987D01*
X148020494Y-93397697D01*
X148075641Y-93564119D01*
X148075643Y-93564124D01*
X148167684Y-93713345D01*
X148291654Y-93837315D01*
X148440875Y-93929356D01*
X148440880Y-93929358D01*
X148607302Y-93984505D01*
X148607309Y-93984506D01*
X148710019Y-93994999D01*
X149059999Y-93994999D01*
X149060000Y-93994998D01*
X149060000Y-93010686D01*
X149064394Y-93015080D01*
X149155606Y-93067741D01*
X149257339Y-93095000D01*
X149362661Y-93095000D01*
X149464394Y-93067741D01*
X149555606Y-93015080D01*
X149560000Y-93010686D01*
X149560000Y-93994999D01*
X149909972Y-93994999D01*
X149909986Y-93994998D01*
X150012697Y-93984505D01*
X150075859Y-93963575D01*
X159672500Y-93963575D01*
X159672500Y-94186424D01*
X159701585Y-94407354D01*
X159701588Y-94407367D01*
X159759263Y-94622618D01*
X159844545Y-94828502D01*
X159844554Y-94828520D01*
X159955964Y-95021491D01*
X159955973Y-95021504D01*
X160006540Y-95087403D01*
X160006543Y-95087403D01*
X160656652Y-94437293D01*
X160663549Y-94453942D01*
X160751099Y-94584970D01*
X160862530Y-94696401D01*
X160993558Y-94783951D01*
X161010205Y-94790846D01*
X160360095Y-95440955D01*
X160360095Y-95440956D01*
X160426007Y-95491533D01*
X160618985Y-95602949D01*
X160618997Y-95602954D01*
X160824881Y-95688236D01*
X161040132Y-95745911D01*
X161040145Y-95745914D01*
X161261075Y-95775000D01*
X161483925Y-95775000D01*
X161704854Y-95745914D01*
X161704867Y-95745911D01*
X161920118Y-95688236D01*
X162126002Y-95602954D01*
X162126014Y-95602949D01*
X162318998Y-95491530D01*
X162384903Y-95440957D01*
X162384904Y-95440956D01*
X161734794Y-94790846D01*
X161751442Y-94783951D01*
X161882470Y-94696401D01*
X161993901Y-94584970D01*
X162081451Y-94453942D01*
X162088346Y-94437294D01*
X162738456Y-95087404D01*
X162738457Y-95087403D01*
X162789030Y-95021498D01*
X162900449Y-94828514D01*
X162900454Y-94828502D01*
X162985736Y-94622618D01*
X163043411Y-94407367D01*
X163043414Y-94407354D01*
X163072500Y-94186424D01*
X163072500Y-93963575D01*
X163043414Y-93742645D01*
X163043411Y-93742632D01*
X162985736Y-93527381D01*
X162900454Y-93321497D01*
X162900449Y-93321485D01*
X162789033Y-93128507D01*
X162738456Y-93062595D01*
X162738455Y-93062595D01*
X162088346Y-93712704D01*
X162081451Y-93696058D01*
X161993901Y-93565030D01*
X161882470Y-93453599D01*
X161751442Y-93366049D01*
X161734793Y-93359152D01*
X162384903Y-92709043D01*
X162384903Y-92709040D01*
X162319004Y-92658473D01*
X162318991Y-92658464D01*
X162126020Y-92547054D01*
X162126002Y-92547045D01*
X161920118Y-92461763D01*
X161704867Y-92404088D01*
X161704854Y-92404085D01*
X161483925Y-92375000D01*
X161261075Y-92375000D01*
X161040145Y-92404085D01*
X161040132Y-92404088D01*
X160824881Y-92461763D01*
X160618997Y-92547045D01*
X160618979Y-92547054D01*
X160426011Y-92658462D01*
X160360095Y-92709042D01*
X161010206Y-93359152D01*
X160993558Y-93366049D01*
X160862530Y-93453599D01*
X160751099Y-93565030D01*
X160663549Y-93696058D01*
X160656653Y-93712706D01*
X160006542Y-93062595D01*
X159955962Y-93128511D01*
X159844554Y-93321479D01*
X159844545Y-93321497D01*
X159759263Y-93527381D01*
X159701588Y-93742632D01*
X159701585Y-93742645D01*
X159672500Y-93963575D01*
X150075859Y-93963575D01*
X150179119Y-93929358D01*
X150179124Y-93929356D01*
X150301331Y-93853978D01*
X150301332Y-93853977D01*
X150328343Y-93837317D01*
X150452315Y-93713345D01*
X150544356Y-93564124D01*
X150544358Y-93564119D01*
X150599505Y-93397697D01*
X150599506Y-93397690D01*
X150609999Y-93294986D01*
X150610000Y-93294973D01*
X150610000Y-92945000D01*
X149625686Y-92945000D01*
X149630080Y-92940606D01*
X149682741Y-92849394D01*
X149710000Y-92747661D01*
X149710000Y-92642339D01*
X149682741Y-92540606D01*
X149630080Y-92449394D01*
X149625686Y-92445000D01*
X150609999Y-92445000D01*
X150609999Y-92095028D01*
X150609998Y-92095013D01*
X150599505Y-91992302D01*
X150544358Y-91825880D01*
X150544356Y-91825875D01*
X150452315Y-91676654D01*
X150328345Y-91552684D01*
X150179124Y-91460643D01*
X150179119Y-91460641D01*
X150012697Y-91405494D01*
X150012690Y-91405493D01*
X149909986Y-91395000D01*
X149560000Y-91395000D01*
X149560000Y-92379314D01*
X149555606Y-92374920D01*
X149464394Y-92322259D01*
X149362661Y-92295000D01*
X149257339Y-92295000D01*
X149155606Y-92322259D01*
X149064394Y-92374920D01*
X149060000Y-92379314D01*
X149060000Y-91395000D01*
X148710028Y-91395000D01*
X148710012Y-91395001D01*
X148607302Y-91405494D01*
X148440880Y-91460641D01*
X148440875Y-91460643D01*
X148291654Y-91552684D01*
X148167684Y-91676654D01*
X148075643Y-91825875D01*
X148075641Y-91825880D01*
X148020494Y-91992302D01*
X148020493Y-91992309D01*
X148010000Y-92095013D01*
X148010000Y-92320146D01*
X147990315Y-92387185D01*
X147937511Y-92432940D01*
X147868353Y-92442884D01*
X147804797Y-92413859D01*
X147771439Y-92367599D01*
X147700941Y-92197402D01*
X147585977Y-92025345D01*
X147585975Y-92025342D01*
X147439657Y-91879024D01*
X147353626Y-91821541D01*
X147267598Y-91764059D01*
X147076420Y-91684870D01*
X147076412Y-91684868D01*
X146873469Y-91644500D01*
X146873465Y-91644500D01*
X146666535Y-91644500D01*
X146666530Y-91644500D01*
X146463587Y-91684868D01*
X146463579Y-91684870D01*
X146272403Y-91764058D01*
X146100342Y-91879024D01*
X145954024Y-92025342D01*
X145839058Y-92197403D01*
X145759870Y-92388579D01*
X145759868Y-92388587D01*
X145719500Y-92591530D01*
X145280499Y-92591530D01*
X145240130Y-92388580D01*
X145160941Y-92197402D01*
X145045977Y-92025345D01*
X145045975Y-92025342D01*
X144899657Y-91879024D01*
X144813626Y-91821541D01*
X144727598Y-91764059D01*
X144536420Y-91684870D01*
X144536412Y-91684868D01*
X144333469Y-91644500D01*
X144333465Y-91644500D01*
X144126535Y-91644500D01*
X144126530Y-91644500D01*
X143923587Y-91684868D01*
X143923579Y-91684870D01*
X143732403Y-91764058D01*
X143560342Y-91879024D01*
X143414024Y-92025342D01*
X143299058Y-92197403D01*
X143219870Y-92388579D01*
X143219868Y-92388587D01*
X143179500Y-92591530D01*
X142740499Y-92591530D01*
X142700130Y-92388580D01*
X142620941Y-92197402D01*
X142505977Y-92025345D01*
X142505975Y-92025342D01*
X142359657Y-91879024D01*
X142273626Y-91821541D01*
X142187598Y-91764059D01*
X141996420Y-91684870D01*
X141996412Y-91684868D01*
X141793469Y-91644500D01*
X141793465Y-91644500D01*
X141586535Y-91644500D01*
X141586530Y-91644500D01*
X141383587Y-91684868D01*
X141383579Y-91684870D01*
X141192403Y-91764058D01*
X141020342Y-91879024D01*
X140874024Y-92025342D01*
X140759058Y-92197403D01*
X140679870Y-92388579D01*
X140679868Y-92388587D01*
X140639500Y-92591530D01*
X115010048Y-92591530D01*
X115010048Y-81619786D01*
X127679500Y-81619786D01*
X127679500Y-82815521D01*
X127679501Y-82815527D01*
X127685908Y-82875134D01*
X127736202Y-83009979D01*
X127736206Y-83009986D01*
X127822452Y-83125195D01*
X127822455Y-83125198D01*
X127937664Y-83211444D01*
X127937671Y-83211448D01*
X128072517Y-83261742D01*
X128072516Y-83261742D01*
X128079444Y-83262486D01*
X128132127Y-83268151D01*
X129327872Y-83268150D01*
X129387483Y-83261742D01*
X129522331Y-83211447D01*
X129637546Y-83125197D01*
X129723796Y-83009982D01*
X129774091Y-82875134D01*
X129780500Y-82815524D01*
X129780499Y-81619779D01*
X129774091Y-81560168D01*
X129723796Y-81425320D01*
X129723795Y-81425319D01*
X129723793Y-81425315D01*
X129637547Y-81310106D01*
X129637544Y-81310103D01*
X129522335Y-81223857D01*
X129522328Y-81223853D01*
X129387482Y-81173559D01*
X129387483Y-81173559D01*
X129327883Y-81167152D01*
X129327881Y-81167151D01*
X129327873Y-81167151D01*
X129327864Y-81167151D01*
X128132129Y-81167151D01*
X128132123Y-81167152D01*
X128072516Y-81173559D01*
X127937671Y-81223853D01*
X127937664Y-81223857D01*
X127822455Y-81310103D01*
X127822452Y-81310106D01*
X127736206Y-81425315D01*
X127736202Y-81425322D01*
X127685908Y-81560168D01*
X127679501Y-81619767D01*
X127679501Y-81619774D01*
X127679500Y-81619786D01*
X115010048Y-81619786D01*
X115010048Y-79216577D01*
X154979500Y-79216577D01*
X154979500Y-79413422D01*
X155010290Y-79607826D01*
X155071117Y-79795029D01*
X155160476Y-79970405D01*
X155276172Y-80129646D01*
X155415354Y-80268828D01*
X155574595Y-80384524D01*
X155657455Y-80426743D01*
X155749970Y-80473882D01*
X155749972Y-80473882D01*
X155749975Y-80473884D01*
X155850317Y-80506487D01*
X155937173Y-80534709D01*
X156131578Y-80565500D01*
X156131583Y-80565500D01*
X156328422Y-80565500D01*
X156522826Y-80534709D01*
X156710025Y-80473884D01*
X156885405Y-80384524D01*
X157044646Y-80268828D01*
X157183828Y-80129646D01*
X157299524Y-79970405D01*
X157388884Y-79795025D01*
X157449709Y-79607826D01*
X157465521Y-79507993D01*
X157480500Y-79413422D01*
X157480500Y-79216578D01*
X157479692Y-79211479D01*
X157479692Y-79211477D01*
X157479691Y-79211473D01*
X157477390Y-79196947D01*
X164730000Y-79196947D01*
X164730000Y-79433052D01*
X164766934Y-79666247D01*
X164839897Y-79890802D01*
X164947087Y-80101174D01*
X165007338Y-80184104D01*
X165007340Y-80184105D01*
X165747037Y-79444408D01*
X165764075Y-79507993D01*
X165829901Y-79622007D01*
X165922993Y-79715099D01*
X166037007Y-79780925D01*
X166100590Y-79797962D01*
X165360893Y-80537658D01*
X165443828Y-80597914D01*
X165654197Y-80705102D01*
X165878752Y-80778065D01*
X165878751Y-80778065D01*
X166111948Y-80815000D01*
X166348052Y-80815000D01*
X166581247Y-80778065D01*
X166805802Y-80705102D01*
X167016163Y-80597918D01*
X167016169Y-80597914D01*
X167099104Y-80537658D01*
X167099105Y-80537658D01*
X166359408Y-79797962D01*
X166422993Y-79780925D01*
X166537007Y-79715099D01*
X166630099Y-79622007D01*
X166695925Y-79507993D01*
X166712962Y-79444408D01*
X167452658Y-80184105D01*
X167452658Y-80184104D01*
X167512914Y-80101169D01*
X167512918Y-80101163D01*
X167620102Y-79890802D01*
X167693065Y-79666247D01*
X167730000Y-79433052D01*
X167730000Y-79196947D01*
X167693065Y-78963752D01*
X167620102Y-78739197D01*
X167512914Y-78528828D01*
X167452658Y-78445894D01*
X167452658Y-78445893D01*
X166712962Y-79185590D01*
X166695925Y-79122007D01*
X166630099Y-79007993D01*
X166537007Y-78914901D01*
X166422993Y-78849075D01*
X166359409Y-78832037D01*
X167099105Y-78092340D01*
X167099104Y-78092338D01*
X167016174Y-78032087D01*
X166805802Y-77924897D01*
X166581247Y-77851934D01*
X166581248Y-77851934D01*
X166348052Y-77815000D01*
X166111948Y-77815000D01*
X165878752Y-77851934D01*
X165654197Y-77924897D01*
X165443830Y-78032084D01*
X165360894Y-78092340D01*
X166100591Y-78832037D01*
X166037007Y-78849075D01*
X165922993Y-78914901D01*
X165829901Y-79007993D01*
X165764075Y-79122007D01*
X165747037Y-79185591D01*
X165007340Y-78445894D01*
X164947084Y-78528830D01*
X164839897Y-78739197D01*
X164766934Y-78963752D01*
X164730000Y-79196947D01*
X157477390Y-79196947D01*
X157449709Y-79022173D01*
X157388882Y-78834970D01*
X157305291Y-78670914D01*
X157299524Y-78659595D01*
X157183828Y-78500354D01*
X157044646Y-78361172D01*
X156885405Y-78245476D01*
X156881900Y-78243690D01*
X156710029Y-78156117D01*
X156522826Y-78095290D01*
X156328422Y-78064500D01*
X156328417Y-78064500D01*
X156131583Y-78064500D01*
X156131578Y-78064500D01*
X155937173Y-78095290D01*
X155749970Y-78156117D01*
X155574594Y-78245476D01*
X155489165Y-78307545D01*
X155415354Y-78361172D01*
X155415352Y-78361174D01*
X155415351Y-78361174D01*
X155276174Y-78500351D01*
X155276174Y-78500352D01*
X155276172Y-78500354D01*
X155255483Y-78528830D01*
X155160476Y-78659594D01*
X155071117Y-78834970D01*
X155010290Y-79022173D01*
X154979500Y-79216577D01*
X115010048Y-79216577D01*
X115010048Y-77114181D01*
X127679500Y-77114181D01*
X127679500Y-77321120D01*
X127719868Y-77524063D01*
X127719870Y-77524071D01*
X127799058Y-77715247D01*
X127914024Y-77887308D01*
X128060342Y-78033626D01*
X128060345Y-78033628D01*
X128232402Y-78148592D01*
X128423580Y-78227781D01*
X128626530Y-78268150D01*
X128626534Y-78268151D01*
X128626535Y-78268151D01*
X128833466Y-78268151D01*
X128833467Y-78268150D01*
X129036420Y-78227781D01*
X129227598Y-78148592D01*
X129399655Y-78033628D01*
X129545977Y-77887306D01*
X129660941Y-77715249D01*
X129740130Y-77524071D01*
X129780500Y-77321116D01*
X129780500Y-77114186D01*
X129740130Y-76911231D01*
X129660941Y-76720053D01*
X129545977Y-76547996D01*
X129545975Y-76547993D01*
X129399657Y-76401675D01*
X129313626Y-76344192D01*
X129227598Y-76286710D01*
X129130472Y-76246479D01*
X129036420Y-76207521D01*
X129036412Y-76207519D01*
X128833469Y-76167151D01*
X128833465Y-76167151D01*
X128626535Y-76167151D01*
X128626530Y-76167151D01*
X128423587Y-76207519D01*
X128423579Y-76207521D01*
X128232403Y-76286709D01*
X128060342Y-76401675D01*
X127914024Y-76547993D01*
X127799058Y-76720054D01*
X127719870Y-76911230D01*
X127719868Y-76911238D01*
X127679500Y-77114181D01*
X115010048Y-77114181D01*
X115010048Y-76002136D01*
X141469500Y-76002136D01*
X141469500Y-77997863D01*
X141469501Y-77997882D01*
X141475908Y-78057481D01*
X141526202Y-78192327D01*
X141526203Y-78192328D01*
X141526204Y-78192330D01*
X141612454Y-78307546D01*
X141727670Y-78393796D01*
X141727671Y-78393796D01*
X141727672Y-78393797D01*
X141862518Y-78444091D01*
X141862517Y-78444091D01*
X141869445Y-78444835D01*
X141922128Y-78450500D01*
X141922137Y-78450500D01*
X143917863Y-78450500D01*
X143917872Y-78450500D01*
X143977482Y-78444091D01*
X144112330Y-78393796D01*
X144227546Y-78307546D01*
X144313796Y-78192330D01*
X144364091Y-78057482D01*
X144370500Y-77997872D01*
X144370500Y-76888575D01*
X146300000Y-76888575D01*
X146300000Y-77111424D01*
X146329085Y-77332354D01*
X146329088Y-77332367D01*
X146386763Y-77547618D01*
X146472045Y-77753502D01*
X146472054Y-77753520D01*
X146583464Y-77946491D01*
X146583473Y-77946504D01*
X146634040Y-78012403D01*
X146634043Y-78012403D01*
X147284152Y-77362293D01*
X147291049Y-77378942D01*
X147378599Y-77509970D01*
X147490030Y-77621401D01*
X147621058Y-77708951D01*
X147637705Y-77715846D01*
X146987595Y-78365955D01*
X146987595Y-78365956D01*
X147053507Y-78416533D01*
X147246485Y-78527949D01*
X147246497Y-78527954D01*
X147452381Y-78613236D01*
X147667632Y-78670911D01*
X147667645Y-78670914D01*
X147888575Y-78700000D01*
X148111425Y-78700000D01*
X148332354Y-78670914D01*
X148332367Y-78670911D01*
X148547618Y-78613236D01*
X148753502Y-78527954D01*
X148753514Y-78527949D01*
X148946498Y-78416530D01*
X149012403Y-78365957D01*
X149012404Y-78365956D01*
X148362294Y-77715846D01*
X148378942Y-77708951D01*
X148509970Y-77621401D01*
X148621401Y-77509970D01*
X148708951Y-77378942D01*
X148715846Y-77362294D01*
X149365956Y-78012404D01*
X149365957Y-78012403D01*
X149416530Y-77946498D01*
X149527949Y-77753514D01*
X149527954Y-77753502D01*
X149613236Y-77547618D01*
X149670911Y-77332367D01*
X149670914Y-77332354D01*
X149700000Y-77111424D01*
X149700000Y-76888575D01*
X149670914Y-76667645D01*
X149670911Y-76667632D01*
X149613236Y-76452381D01*
X149527954Y-76246497D01*
X149527949Y-76246485D01*
X149416533Y-76053507D01*
X149365956Y-75987595D01*
X149365955Y-75987595D01*
X148715846Y-76637704D01*
X148708951Y-76621058D01*
X148621401Y-76490030D01*
X148509970Y-76378599D01*
X148378942Y-76291049D01*
X148362293Y-76284152D01*
X149012403Y-75634043D01*
X149012403Y-75634040D01*
X148946504Y-75583473D01*
X148946491Y-75583464D01*
X148753520Y-75472054D01*
X148753502Y-75472045D01*
X148547618Y-75386763D01*
X148332367Y-75329088D01*
X148332354Y-75329085D01*
X148111425Y-75300000D01*
X147888575Y-75300000D01*
X147667645Y-75329085D01*
X147667632Y-75329088D01*
X147452381Y-75386763D01*
X147246497Y-75472045D01*
X147246479Y-75472054D01*
X147053511Y-75583462D01*
X146987595Y-75634042D01*
X147637706Y-76284152D01*
X147621058Y-76291049D01*
X147490030Y-76378599D01*
X147378599Y-76490030D01*
X147291049Y-76621058D01*
X147284153Y-76637706D01*
X146634042Y-75987595D01*
X146583462Y-76053511D01*
X146472054Y-76246479D01*
X146472045Y-76246497D01*
X146386763Y-76452381D01*
X146329088Y-76667632D01*
X146329085Y-76667645D01*
X146300000Y-76888575D01*
X144370500Y-76888575D01*
X144370500Y-76002128D01*
X144364091Y-75942518D01*
X144313796Y-75807670D01*
X144227546Y-75692454D01*
X144112330Y-75606204D01*
X144112328Y-75606203D01*
X144112327Y-75606202D01*
X143977481Y-75555908D01*
X143977482Y-75555908D01*
X143917882Y-75549501D01*
X143917880Y-75549500D01*
X143917872Y-75549500D01*
X141922128Y-75549500D01*
X141922120Y-75549500D01*
X141922117Y-75549501D01*
X141862518Y-75555908D01*
X141727672Y-75606202D01*
X141727670Y-75606204D01*
X141612454Y-75692454D01*
X141526204Y-75807670D01*
X141526202Y-75807672D01*
X141475908Y-75942518D01*
X141469501Y-76002117D01*
X141469500Y-76002136D01*
X115010048Y-76002136D01*
X115010048Y-69378711D01*
X116149500Y-69378711D01*
X116149500Y-69621288D01*
X116181161Y-69861785D01*
X116243947Y-70096104D01*
X116336773Y-70320205D01*
X116336776Y-70320212D01*
X116458064Y-70530289D01*
X116458066Y-70530292D01*
X116458067Y-70530293D01*
X116605733Y-70722736D01*
X116605739Y-70722743D01*
X116777256Y-70894260D01*
X116777262Y-70894265D01*
X116969711Y-71041936D01*
X117179788Y-71163224D01*
X117403900Y-71256054D01*
X117638211Y-71318838D01*
X117818586Y-71342584D01*
X117878711Y-71350500D01*
X117878712Y-71350500D01*
X118121289Y-71350500D01*
X118169388Y-71344167D01*
X118361789Y-71318838D01*
X118596100Y-71256054D01*
X118820212Y-71163224D01*
X119030289Y-71041936D01*
X119222738Y-70894265D01*
X119394265Y-70722738D01*
X119541936Y-70530289D01*
X119663224Y-70320212D01*
X119756054Y-70096100D01*
X119818838Y-69861789D01*
X119850500Y-69621288D01*
X119850500Y-69378712D01*
X119850500Y-69378711D01*
X170149500Y-69378711D01*
X170149500Y-69621288D01*
X170181161Y-69861785D01*
X170243947Y-70096104D01*
X170336773Y-70320205D01*
X170336776Y-70320212D01*
X170458064Y-70530289D01*
X170458066Y-70530292D01*
X170458067Y-70530293D01*
X170605733Y-70722736D01*
X170605739Y-70722743D01*
X170777256Y-70894260D01*
X170777262Y-70894265D01*
X170969711Y-71041936D01*
X171179788Y-71163224D01*
X171403900Y-71256054D01*
X171638211Y-71318838D01*
X171818586Y-71342584D01*
X171878711Y-71350500D01*
X171878712Y-71350500D01*
X172121289Y-71350500D01*
X172169388Y-71344167D01*
X172361789Y-71318838D01*
X172596100Y-71256054D01*
X172820212Y-71163224D01*
X173030289Y-71041936D01*
X173222738Y-70894265D01*
X173394265Y-70722738D01*
X173541936Y-70530289D01*
X173663224Y-70320212D01*
X173756054Y-70096100D01*
X173818838Y-69861789D01*
X173850500Y-69621288D01*
X173850500Y-69378712D01*
X173818838Y-69138211D01*
X173756054Y-68903900D01*
X173663224Y-68679788D01*
X173541936Y-68469711D01*
X173394265Y-68277262D01*
X173394260Y-68277256D01*
X173222743Y-68105739D01*
X173222736Y-68105733D01*
X173030293Y-67958067D01*
X173030292Y-67958066D01*
X173030289Y-67958064D01*
X172820212Y-67836776D01*
X172820205Y-67836773D01*
X172596104Y-67743947D01*
X172361785Y-67681161D01*
X172121289Y-67649500D01*
X172121288Y-67649500D01*
X171878712Y-67649500D01*
X171878711Y-67649500D01*
X171638214Y-67681161D01*
X171403895Y-67743947D01*
X171179794Y-67836773D01*
X171179785Y-67836777D01*
X170969706Y-67958067D01*
X170777263Y-68105733D01*
X170777256Y-68105739D01*
X170605739Y-68277256D01*
X170605733Y-68277263D01*
X170458067Y-68469706D01*
X170336777Y-68679785D01*
X170336773Y-68679794D01*
X170243947Y-68903895D01*
X170181161Y-69138214D01*
X170149500Y-69378711D01*
X119850500Y-69378711D01*
X119818838Y-69138211D01*
X119756054Y-68903900D01*
X119663224Y-68679788D01*
X119541936Y-68469711D01*
X119394265Y-68277262D01*
X119394260Y-68277256D01*
X119222743Y-68105739D01*
X119222736Y-68105733D01*
X119030293Y-67958067D01*
X119030292Y-67958066D01*
X119030289Y-67958064D01*
X118820212Y-67836776D01*
X118820205Y-67836773D01*
X118596104Y-67743947D01*
X118361785Y-67681161D01*
X118121289Y-67649500D01*
X118121288Y-67649500D01*
X117878712Y-67649500D01*
X117878711Y-67649500D01*
X117638214Y-67681161D01*
X117403895Y-67743947D01*
X117179794Y-67836773D01*
X117179785Y-67836777D01*
X116969706Y-67958067D01*
X116777263Y-68105733D01*
X116777256Y-68105739D01*
X116605739Y-68277256D01*
X116605733Y-68277263D01*
X116458067Y-68469706D01*
X116336777Y-68679785D01*
X116336773Y-68679794D01*
X116243947Y-68903895D01*
X116181161Y-69138214D01*
X116149500Y-69378711D01*
X115010048Y-69378711D01*
X115010048Y-66757034D01*
X115029733Y-66689995D01*
X115082537Y-66644240D01*
X115134048Y-66633034D01*
X174845048Y-66633034D01*
X174912087Y-66652719D01*
G37*
%TD.AperFunction*%
%TD*%
M02*
