%TF.GenerationSoftware,KiCad,Pcbnew,9.0.5*%
%TF.CreationDate,2026-03-27T22:44:31+05:30*%
%TF.ProjectId,Queaky Steam Toy,51756561-6b79-4205-9374-65616d20546f,rev?*%
%TF.SameCoordinates,Original*%
%TF.FileFunction,Legend,Top*%
%TF.FilePolarity,Positive*%
%FSLAX46Y46*%
G04 Gerber Fmt 4.6, Leading zero omitted, Abs format (unit mm)*
G04 Created by KiCad (PCBNEW 9.0.5) date 2026-03-27 22:44:31*
%MOMM*%
%LPD*%
G01*
G04 APERTURE LIST*
%ADD10C,0.150000*%
%ADD11C,0.120000*%
G04 APERTURE END LIST*
D10*
X123073866Y-99523809D02*
X123073866Y-98761905D01*
X123454819Y-99142857D02*
X122692914Y-99142857D01*
X122454819Y-97333333D02*
X122454819Y-97142857D01*
X122454819Y-97142857D02*
X122502438Y-97047619D01*
X122502438Y-97047619D02*
X122597676Y-96952381D01*
X122597676Y-96952381D02*
X122788152Y-96904762D01*
X122788152Y-96904762D02*
X123121485Y-96904762D01*
X123121485Y-96904762D02*
X123311961Y-96952381D01*
X123311961Y-96952381D02*
X123407200Y-97047619D01*
X123407200Y-97047619D02*
X123454819Y-97142857D01*
X123454819Y-97142857D02*
X123454819Y-97333333D01*
X123454819Y-97333333D02*
X123407200Y-97428571D01*
X123407200Y-97428571D02*
X123311961Y-97523809D01*
X123311961Y-97523809D02*
X123121485Y-97571428D01*
X123121485Y-97571428D02*
X122788152Y-97571428D01*
X122788152Y-97571428D02*
X122597676Y-97523809D01*
X122597676Y-97523809D02*
X122502438Y-97428571D01*
X122502438Y-97428571D02*
X122454819Y-97333333D01*
X122788152Y-96047619D02*
X123454819Y-96047619D01*
X122788152Y-96476190D02*
X123311961Y-96476190D01*
X123311961Y-96476190D02*
X123407200Y-96428571D01*
X123407200Y-96428571D02*
X123454819Y-96333333D01*
X123454819Y-96333333D02*
X123454819Y-96190476D01*
X123454819Y-96190476D02*
X123407200Y-96095238D01*
X123407200Y-96095238D02*
X123359580Y-96047619D01*
X122788152Y-95714285D02*
X122788152Y-95333333D01*
X122454819Y-95571428D02*
X123311961Y-95571428D01*
X123311961Y-95571428D02*
X123407200Y-95523809D01*
X123407200Y-95523809D02*
X123454819Y-95428571D01*
X123454819Y-95428571D02*
X123454819Y-95333333D01*
X123073866Y-94238094D02*
X123073866Y-93476190D01*
X144738095Y-89454819D02*
X144738095Y-90264342D01*
X144738095Y-90264342D02*
X144785714Y-90359580D01*
X144785714Y-90359580D02*
X144833333Y-90407200D01*
X144833333Y-90407200D02*
X144928571Y-90454819D01*
X144928571Y-90454819D02*
X145119047Y-90454819D01*
X145119047Y-90454819D02*
X145214285Y-90407200D01*
X145214285Y-90407200D02*
X145261904Y-90359580D01*
X145261904Y-90359580D02*
X145309523Y-90264342D01*
X145309523Y-90264342D02*
X145309523Y-89454819D01*
X146309523Y-90454819D02*
X145738095Y-90454819D01*
X146023809Y-90454819D02*
X146023809Y-89454819D01*
X146023809Y-89454819D02*
X145928571Y-89597676D01*
X145928571Y-89597676D02*
X145833333Y-89692914D01*
X145833333Y-89692914D02*
X145738095Y-89740533D01*
X142476190Y-69573866D02*
X143238095Y-69573866D01*
X142857142Y-69954819D02*
X142857142Y-69192914D01*
X144809523Y-69431009D02*
X144952380Y-69478628D01*
X144952380Y-69478628D02*
X144999999Y-69526247D01*
X144999999Y-69526247D02*
X145047618Y-69621485D01*
X145047618Y-69621485D02*
X145047618Y-69764342D01*
X145047618Y-69764342D02*
X144999999Y-69859580D01*
X144999999Y-69859580D02*
X144952380Y-69907200D01*
X144952380Y-69907200D02*
X144857142Y-69954819D01*
X144857142Y-69954819D02*
X144476190Y-69954819D01*
X144476190Y-69954819D02*
X144476190Y-68954819D01*
X144476190Y-68954819D02*
X144809523Y-68954819D01*
X144809523Y-68954819D02*
X144904761Y-69002438D01*
X144904761Y-69002438D02*
X144952380Y-69050057D01*
X144952380Y-69050057D02*
X144999999Y-69145295D01*
X144999999Y-69145295D02*
X144999999Y-69240533D01*
X144999999Y-69240533D02*
X144952380Y-69335771D01*
X144952380Y-69335771D02*
X144904761Y-69383390D01*
X144904761Y-69383390D02*
X144809523Y-69431009D01*
X144809523Y-69431009D02*
X144476190Y-69431009D01*
X145904761Y-69288152D02*
X145904761Y-69954819D01*
X145476190Y-69288152D02*
X145476190Y-69811961D01*
X145476190Y-69811961D02*
X145523809Y-69907200D01*
X145523809Y-69907200D02*
X145619047Y-69954819D01*
X145619047Y-69954819D02*
X145761904Y-69954819D01*
X145761904Y-69954819D02*
X145857142Y-69907200D01*
X145857142Y-69907200D02*
X145904761Y-69859580D01*
X146285714Y-69288152D02*
X146809523Y-69288152D01*
X146809523Y-69288152D02*
X146285714Y-69954819D01*
X146285714Y-69954819D02*
X146809523Y-69954819D01*
X147095238Y-69288152D02*
X147619047Y-69288152D01*
X147619047Y-69288152D02*
X147095238Y-69954819D01*
X147095238Y-69954819D02*
X147619047Y-69954819D01*
X148761905Y-69573866D02*
X149523810Y-69573866D01*
X171238095Y-118954819D02*
X171238095Y-117954819D01*
X171238095Y-118431009D02*
X171809523Y-118431009D01*
X171809523Y-118954819D02*
X171809523Y-117954819D01*
X172238095Y-118050057D02*
X172285714Y-118002438D01*
X172285714Y-118002438D02*
X172380952Y-117954819D01*
X172380952Y-117954819D02*
X172619047Y-117954819D01*
X172619047Y-117954819D02*
X172714285Y-118002438D01*
X172714285Y-118002438D02*
X172761904Y-118050057D01*
X172761904Y-118050057D02*
X172809523Y-118145295D01*
X172809523Y-118145295D02*
X172809523Y-118240533D01*
X172809523Y-118240533D02*
X172761904Y-118383390D01*
X172761904Y-118383390D02*
X172190476Y-118954819D01*
X172190476Y-118954819D02*
X172809523Y-118954819D01*
X123839580Y-79884317D02*
X123887200Y-79931936D01*
X123887200Y-79931936D02*
X123934819Y-80074793D01*
X123934819Y-80074793D02*
X123934819Y-80170031D01*
X123934819Y-80170031D02*
X123887200Y-80312888D01*
X123887200Y-80312888D02*
X123791961Y-80408126D01*
X123791961Y-80408126D02*
X123696723Y-80455745D01*
X123696723Y-80455745D02*
X123506247Y-80503364D01*
X123506247Y-80503364D02*
X123363390Y-80503364D01*
X123363390Y-80503364D02*
X123172914Y-80455745D01*
X123172914Y-80455745D02*
X123077676Y-80408126D01*
X123077676Y-80408126D02*
X122982438Y-80312888D01*
X122982438Y-80312888D02*
X122934819Y-80170031D01*
X122934819Y-80170031D02*
X122934819Y-80074793D01*
X122934819Y-80074793D02*
X122982438Y-79931936D01*
X122982438Y-79931936D02*
X123030057Y-79884317D01*
X123030057Y-79503364D02*
X122982438Y-79455745D01*
X122982438Y-79455745D02*
X122934819Y-79360507D01*
X122934819Y-79360507D02*
X122934819Y-79122412D01*
X122934819Y-79122412D02*
X122982438Y-79027174D01*
X122982438Y-79027174D02*
X123030057Y-78979555D01*
X123030057Y-78979555D02*
X123125295Y-78931936D01*
X123125295Y-78931936D02*
X123220533Y-78931936D01*
X123220533Y-78931936D02*
X123363390Y-78979555D01*
X123363390Y-78979555D02*
X123934819Y-79550983D01*
X123934819Y-79550983D02*
X123934819Y-78931936D01*
X133063333Y-115139819D02*
X132730000Y-114663628D01*
X132491905Y-115139819D02*
X132491905Y-114139819D01*
X132491905Y-114139819D02*
X132872857Y-114139819D01*
X132872857Y-114139819D02*
X132968095Y-114187438D01*
X132968095Y-114187438D02*
X133015714Y-114235057D01*
X133015714Y-114235057D02*
X133063333Y-114330295D01*
X133063333Y-114330295D02*
X133063333Y-114473152D01*
X133063333Y-114473152D02*
X133015714Y-114568390D01*
X133015714Y-114568390D02*
X132968095Y-114616009D01*
X132968095Y-114616009D02*
X132872857Y-114663628D01*
X132872857Y-114663628D02*
X132491905Y-114663628D01*
X133396667Y-114139819D02*
X134015714Y-114139819D01*
X134015714Y-114139819D02*
X133682381Y-114520771D01*
X133682381Y-114520771D02*
X133825238Y-114520771D01*
X133825238Y-114520771D02*
X133920476Y-114568390D01*
X133920476Y-114568390D02*
X133968095Y-114616009D01*
X133968095Y-114616009D02*
X134015714Y-114711247D01*
X134015714Y-114711247D02*
X134015714Y-114949342D01*
X134015714Y-114949342D02*
X133968095Y-115044580D01*
X133968095Y-115044580D02*
X133920476Y-115092200D01*
X133920476Y-115092200D02*
X133825238Y-115139819D01*
X133825238Y-115139819D02*
X133539524Y-115139819D01*
X133539524Y-115139819D02*
X133444286Y-115092200D01*
X133444286Y-115092200D02*
X133396667Y-115044580D01*
X170738095Y-74454819D02*
X170738095Y-73454819D01*
X170738095Y-73931009D02*
X171309523Y-73931009D01*
X171309523Y-74454819D02*
X171309523Y-73454819D01*
X172309523Y-74454819D02*
X171738095Y-74454819D01*
X172023809Y-74454819D02*
X172023809Y-73454819D01*
X172023809Y-73454819D02*
X171928571Y-73597676D01*
X171928571Y-73597676D02*
X171833333Y-73692914D01*
X171833333Y-73692914D02*
X171738095Y-73740533D01*
X158563333Y-115139819D02*
X158230000Y-114663628D01*
X157991905Y-115139819D02*
X157991905Y-114139819D01*
X157991905Y-114139819D02*
X158372857Y-114139819D01*
X158372857Y-114139819D02*
X158468095Y-114187438D01*
X158468095Y-114187438D02*
X158515714Y-114235057D01*
X158515714Y-114235057D02*
X158563333Y-114330295D01*
X158563333Y-114330295D02*
X158563333Y-114473152D01*
X158563333Y-114473152D02*
X158515714Y-114568390D01*
X158515714Y-114568390D02*
X158468095Y-114616009D01*
X158468095Y-114616009D02*
X158372857Y-114663628D01*
X158372857Y-114663628D02*
X157991905Y-114663628D01*
X159515714Y-115139819D02*
X158944286Y-115139819D01*
X159230000Y-115139819D02*
X159230000Y-114139819D01*
X159230000Y-114139819D02*
X159134762Y-114282676D01*
X159134762Y-114282676D02*
X159039524Y-114377914D01*
X159039524Y-114377914D02*
X158944286Y-114425533D01*
X168573866Y-99785714D02*
X168573866Y-99023810D01*
X168954819Y-99404762D02*
X168192914Y-99404762D01*
X168431009Y-97452381D02*
X168478628Y-97309524D01*
X168478628Y-97309524D02*
X168526247Y-97261905D01*
X168526247Y-97261905D02*
X168621485Y-97214286D01*
X168621485Y-97214286D02*
X168764342Y-97214286D01*
X168764342Y-97214286D02*
X168859580Y-97261905D01*
X168859580Y-97261905D02*
X168907200Y-97309524D01*
X168907200Y-97309524D02*
X168954819Y-97404762D01*
X168954819Y-97404762D02*
X168954819Y-97785714D01*
X168954819Y-97785714D02*
X167954819Y-97785714D01*
X167954819Y-97785714D02*
X167954819Y-97452381D01*
X167954819Y-97452381D02*
X168002438Y-97357143D01*
X168002438Y-97357143D02*
X168050057Y-97309524D01*
X168050057Y-97309524D02*
X168145295Y-97261905D01*
X168145295Y-97261905D02*
X168240533Y-97261905D01*
X168240533Y-97261905D02*
X168335771Y-97309524D01*
X168335771Y-97309524D02*
X168383390Y-97357143D01*
X168383390Y-97357143D02*
X168431009Y-97452381D01*
X168431009Y-97452381D02*
X168431009Y-97785714D01*
X168954819Y-96357143D02*
X168431009Y-96357143D01*
X168431009Y-96357143D02*
X168335771Y-96404762D01*
X168335771Y-96404762D02*
X168288152Y-96500000D01*
X168288152Y-96500000D02*
X168288152Y-96690476D01*
X168288152Y-96690476D02*
X168335771Y-96785714D01*
X168907200Y-96357143D02*
X168954819Y-96452381D01*
X168954819Y-96452381D02*
X168954819Y-96690476D01*
X168954819Y-96690476D02*
X168907200Y-96785714D01*
X168907200Y-96785714D02*
X168811961Y-96833333D01*
X168811961Y-96833333D02*
X168716723Y-96833333D01*
X168716723Y-96833333D02*
X168621485Y-96785714D01*
X168621485Y-96785714D02*
X168573866Y-96690476D01*
X168573866Y-96690476D02*
X168573866Y-96452381D01*
X168573866Y-96452381D02*
X168526247Y-96357143D01*
X168288152Y-96023809D02*
X168288152Y-95642857D01*
X167954819Y-95880952D02*
X168811961Y-95880952D01*
X168811961Y-95880952D02*
X168907200Y-95833333D01*
X168907200Y-95833333D02*
X168954819Y-95738095D01*
X168954819Y-95738095D02*
X168954819Y-95642857D01*
X168288152Y-95452380D02*
X168288152Y-95071428D01*
X167954819Y-95309523D02*
X168811961Y-95309523D01*
X168811961Y-95309523D02*
X168907200Y-95261904D01*
X168907200Y-95261904D02*
X168954819Y-95166666D01*
X168954819Y-95166666D02*
X168954819Y-95071428D01*
X168573866Y-93976189D02*
X168573866Y-93214285D01*
X116738095Y-118954819D02*
X116738095Y-117954819D01*
X116738095Y-118431009D02*
X117309523Y-118431009D01*
X117309523Y-118954819D02*
X117309523Y-117954819D01*
X118214285Y-118288152D02*
X118214285Y-118954819D01*
X117976190Y-117907200D02*
X117738095Y-118621485D01*
X117738095Y-118621485D02*
X118357142Y-118621485D01*
X116738095Y-74454819D02*
X116738095Y-73454819D01*
X116738095Y-73931009D02*
X117309523Y-73931009D01*
X117309523Y-74454819D02*
X117309523Y-73454819D01*
X117690476Y-73454819D02*
X118309523Y-73454819D01*
X118309523Y-73454819D02*
X117976190Y-73835771D01*
X117976190Y-73835771D02*
X118119047Y-73835771D01*
X118119047Y-73835771D02*
X118214285Y-73883390D01*
X118214285Y-73883390D02*
X118261904Y-73931009D01*
X118261904Y-73931009D02*
X118309523Y-74026247D01*
X118309523Y-74026247D02*
X118309523Y-74264342D01*
X118309523Y-74264342D02*
X118261904Y-74359580D01*
X118261904Y-74359580D02*
X118214285Y-74407200D01*
X118214285Y-74407200D02*
X118119047Y-74454819D01*
X118119047Y-74454819D02*
X117833333Y-74454819D01*
X117833333Y-74454819D02*
X117738095Y-74407200D01*
X117738095Y-74407200D02*
X117690476Y-74359580D01*
X161063333Y-75924580D02*
X161015714Y-75972200D01*
X161015714Y-75972200D02*
X160872857Y-76019819D01*
X160872857Y-76019819D02*
X160777619Y-76019819D01*
X160777619Y-76019819D02*
X160634762Y-75972200D01*
X160634762Y-75972200D02*
X160539524Y-75876961D01*
X160539524Y-75876961D02*
X160491905Y-75781723D01*
X160491905Y-75781723D02*
X160444286Y-75591247D01*
X160444286Y-75591247D02*
X160444286Y-75448390D01*
X160444286Y-75448390D02*
X160491905Y-75257914D01*
X160491905Y-75257914D02*
X160539524Y-75162676D01*
X160539524Y-75162676D02*
X160634762Y-75067438D01*
X160634762Y-75067438D02*
X160777619Y-75019819D01*
X160777619Y-75019819D02*
X160872857Y-75019819D01*
X160872857Y-75019819D02*
X161015714Y-75067438D01*
X161015714Y-75067438D02*
X161063333Y-75115057D01*
X162015714Y-76019819D02*
X161444286Y-76019819D01*
X161730000Y-76019819D02*
X161730000Y-75019819D01*
X161730000Y-75019819D02*
X161634762Y-75162676D01*
X161634762Y-75162676D02*
X161539524Y-75257914D01*
X161539524Y-75257914D02*
X161444286Y-75305533D01*
D11*
%TO.C,+ Out -*%
X124852500Y-101815000D02*
X124852500Y-90815000D01*
X126472500Y-101815000D02*
X126472500Y-90815000D01*
X134222500Y-101815000D02*
X134222500Y-90815000D01*
X135342500Y-101815000D02*
X124852500Y-101815000D01*
X135342500Y-99455000D02*
X135342500Y-101815000D01*
X124852500Y-90815000D02*
X135342500Y-90815000D01*
X135342500Y-90815000D02*
X135342500Y-98855000D01*
X135952500Y-99595000D02*
X135342500Y-99155000D01*
X135952500Y-98715000D01*
X135952500Y-99595000D01*
G36*
X135952500Y-99595000D02*
G01*
X135342500Y-99155000D01*
X135952500Y-98715000D01*
X135952500Y-99595000D01*
G37*
%TO.C,U1*%
X150640000Y-93855000D02*
X140360000Y-93855000D01*
X140360000Y-93855000D02*
X140360000Y-99155000D01*
X150640000Y-95505000D02*
X150640000Y-93855000D01*
X150640000Y-99155000D02*
X150640000Y-97505000D01*
X140360000Y-99155000D02*
X150640000Y-99155000D01*
X150640000Y-97505000D02*
G75*
G02*
X150640000Y-95505000I0J1000000D01*
G01*
%TO.C,+ Buzz -*%
X151260000Y-71980000D02*
X151260000Y-82470000D01*
X140260000Y-71980000D02*
X151260000Y-71980000D01*
X140260000Y-73600000D02*
X151260000Y-73600000D01*
X140260000Y-81350000D02*
X151260000Y-81350000D01*
X151260000Y-82470000D02*
X143220000Y-82470000D01*
X142620000Y-82470000D02*
X140260000Y-82470000D01*
X140260000Y-82470000D02*
X140260000Y-71980000D01*
X143360000Y-83080000D02*
X142480000Y-83080000D01*
X142920000Y-82470000D01*
X143360000Y-83080000D01*
G36*
X143360000Y-83080000D02*
G01*
X142480000Y-83080000D01*
X142920000Y-82470000D01*
X143360000Y-83080000D01*
G37*
%TO.C,C2*%
X128197000Y-75637651D02*
X129263000Y-75637651D01*
X127962000Y-75677651D02*
X129498000Y-75677651D01*
X127783000Y-75717651D02*
X129677000Y-75717651D01*
X127633000Y-75757651D02*
X129827000Y-75757651D01*
X127502000Y-75797651D02*
X129958000Y-75797651D01*
X127384000Y-75837651D02*
X130076000Y-75837651D01*
X127277000Y-75877651D02*
X130183000Y-75877651D01*
X127178000Y-75917651D02*
X130282000Y-75917651D01*
X127086000Y-75957651D02*
X130374000Y-75957651D01*
X126999000Y-75997651D02*
X130461000Y-75997651D01*
X126917000Y-76037651D02*
X130543000Y-76037651D01*
X126840000Y-76077651D02*
X130620000Y-76077651D01*
X126766000Y-76117651D02*
X130694000Y-76117651D01*
X126696000Y-76157651D02*
X130764000Y-76157651D01*
X129770000Y-76197651D02*
X130831000Y-76197651D01*
X126629000Y-76197651D02*
X127690000Y-76197651D01*
X129770000Y-76237651D02*
X130895000Y-76237651D01*
X126565000Y-76237651D02*
X127690000Y-76237651D01*
X129770000Y-76277651D02*
X130957000Y-76277651D01*
X126503000Y-76277651D02*
X127690000Y-76277651D01*
X129770000Y-76317651D02*
X131017000Y-76317651D01*
X126443000Y-76317651D02*
X127690000Y-76317651D01*
X129770000Y-76357651D02*
X131074000Y-76357651D01*
X126386000Y-76357651D02*
X127690000Y-76357651D01*
X129770000Y-76397651D02*
X131130000Y-76397651D01*
X126330000Y-76397651D02*
X127690000Y-76397651D01*
X129770000Y-76437651D02*
X131183000Y-76437651D01*
X126277000Y-76437651D02*
X127690000Y-76437651D01*
X129770000Y-76477651D02*
X131235000Y-76477651D01*
X126225000Y-76477651D02*
X127690000Y-76477651D01*
X129770000Y-76517651D02*
X131285000Y-76517651D01*
X126175000Y-76517651D02*
X127690000Y-76517651D01*
X129770000Y-76557651D02*
X131334000Y-76557651D01*
X126126000Y-76557651D02*
X127690000Y-76557651D01*
X129770000Y-76597651D02*
X131381000Y-76597651D01*
X126079000Y-76597651D02*
X127690000Y-76597651D01*
X129770000Y-76637651D02*
X131426000Y-76637651D01*
X126034000Y-76637651D02*
X127690000Y-76637651D01*
X129770000Y-76677651D02*
X131471000Y-76677651D01*
X125989000Y-76677651D02*
X127690000Y-76677651D01*
X129770000Y-76717651D02*
X131514000Y-76717651D01*
X125946000Y-76717651D02*
X127690000Y-76717651D01*
X129770000Y-76757651D02*
X131556000Y-76757651D01*
X125904000Y-76757651D02*
X127690000Y-76757651D01*
X129770000Y-76797651D02*
X131597000Y-76797651D01*
X125863000Y-76797651D02*
X127690000Y-76797651D01*
X129770000Y-76837651D02*
X131636000Y-76837651D01*
X125824000Y-76837651D02*
X127690000Y-76837651D01*
X129770000Y-76877651D02*
X131675000Y-76877651D01*
X125785000Y-76877651D02*
X127690000Y-76877651D01*
X129770000Y-76917651D02*
X131712000Y-76917651D01*
X125748000Y-76917651D02*
X127690000Y-76917651D01*
X129770000Y-76957651D02*
X131749000Y-76957651D01*
X125711000Y-76957651D02*
X127690000Y-76957651D01*
X129770000Y-76997651D02*
X131785000Y-76997651D01*
X125675000Y-76997651D02*
X127690000Y-76997651D01*
X129770000Y-77037651D02*
X131819000Y-77037651D01*
X125641000Y-77037651D02*
X127690000Y-77037651D01*
X129770000Y-77077651D02*
X131853000Y-77077651D01*
X125607000Y-77077651D02*
X127690000Y-77077651D01*
X129770000Y-77117651D02*
X131886000Y-77117651D01*
X125574000Y-77117651D02*
X127690000Y-77117651D01*
X129770000Y-77157651D02*
X131918000Y-77157651D01*
X125542000Y-77157651D02*
X127690000Y-77157651D01*
X129770000Y-77197651D02*
X131949000Y-77197651D01*
X125511000Y-77197651D02*
X127690000Y-77197651D01*
X129770000Y-77237651D02*
X131980000Y-77237651D01*
X125480000Y-77237651D02*
X127690000Y-77237651D01*
X129770000Y-77277651D02*
X132010000Y-77277651D01*
X125450000Y-77277651D02*
X127690000Y-77277651D01*
X129770000Y-77317651D02*
X132039000Y-77317651D01*
X125421000Y-77317651D02*
X127690000Y-77317651D01*
X129770000Y-77357651D02*
X132067000Y-77357651D01*
X125393000Y-77357651D02*
X127690000Y-77357651D01*
X129770000Y-77397651D02*
X132095000Y-77397651D01*
X125365000Y-77397651D02*
X127690000Y-77397651D01*
X129770000Y-77437651D02*
X132122000Y-77437651D01*
X125338000Y-77437651D02*
X127690000Y-77437651D01*
X129770000Y-77477651D02*
X132148000Y-77477651D01*
X125312000Y-77477651D02*
X127690000Y-77477651D01*
X129770000Y-77517651D02*
X132173000Y-77517651D01*
X125287000Y-77517651D02*
X127690000Y-77517651D01*
X129770000Y-77557651D02*
X132198000Y-77557651D01*
X125262000Y-77557651D02*
X127690000Y-77557651D01*
X129770000Y-77597651D02*
X132223000Y-77597651D01*
X125237000Y-77597651D02*
X127690000Y-77597651D01*
X129770000Y-77637651D02*
X132246000Y-77637651D01*
X125214000Y-77637651D02*
X127690000Y-77637651D01*
X129770000Y-77677651D02*
X132269000Y-77677651D01*
X125191000Y-77677651D02*
X127690000Y-77677651D01*
X129770000Y-77717651D02*
X132292000Y-77717651D01*
X125168000Y-77717651D02*
X127690000Y-77717651D01*
X129770000Y-77757651D02*
X132314000Y-77757651D01*
X125146000Y-77757651D02*
X127690000Y-77757651D01*
X129770000Y-77797651D02*
X132335000Y-77797651D01*
X125125000Y-77797651D02*
X127690000Y-77797651D01*
X129770000Y-77837651D02*
X132356000Y-77837651D01*
X125104000Y-77837651D02*
X127690000Y-77837651D01*
X129770000Y-77877651D02*
X132376000Y-77877651D01*
X125084000Y-77877651D02*
X127690000Y-77877651D01*
X129770000Y-77917651D02*
X132396000Y-77917651D01*
X125064000Y-77917651D02*
X127690000Y-77917651D01*
X129770000Y-77957651D02*
X132415000Y-77957651D01*
X125045000Y-77957651D02*
X127690000Y-77957651D01*
X129770000Y-77997651D02*
X132434000Y-77997651D01*
X125026000Y-77997651D02*
X127690000Y-77997651D01*
X129770000Y-78037651D02*
X132452000Y-78037651D01*
X125008000Y-78037651D02*
X127690000Y-78037651D01*
X129770000Y-78077651D02*
X132470000Y-78077651D01*
X124990000Y-78077651D02*
X127690000Y-78077651D01*
X129770000Y-78117651D02*
X132487000Y-78117651D01*
X124973000Y-78117651D02*
X127690000Y-78117651D01*
X129770000Y-78157651D02*
X132503000Y-78157651D01*
X124957000Y-78157651D02*
X127690000Y-78157651D01*
X129770000Y-78197651D02*
X132519000Y-78197651D01*
X124941000Y-78197651D02*
X127690000Y-78197651D01*
X129770000Y-78237651D02*
X132535000Y-78237651D01*
X124925000Y-78237651D02*
X127690000Y-78237651D01*
X124910000Y-78277651D02*
X132550000Y-78277651D01*
X124895000Y-78317651D02*
X132565000Y-78317651D01*
X124881000Y-78357651D02*
X132579000Y-78357651D01*
X124867000Y-78397651D02*
X132593000Y-78397651D01*
X124854000Y-78437651D02*
X132606000Y-78437651D01*
X124841000Y-78477651D02*
X132619000Y-78477651D01*
X124829000Y-78517651D02*
X132631000Y-78517651D01*
X124817000Y-78557651D02*
X132643000Y-78557651D01*
X124805000Y-78597651D02*
X132655000Y-78597651D01*
X124794000Y-78637651D02*
X132666000Y-78637651D01*
X124783000Y-78677651D02*
X132677000Y-78677651D01*
X124773000Y-78717651D02*
X132687000Y-78717651D01*
X124763000Y-78757651D02*
X132697000Y-78757651D01*
X124754000Y-78797651D02*
X132706000Y-78797651D01*
X124745000Y-78837651D02*
X132715000Y-78837651D01*
X124737000Y-78877651D02*
X132723000Y-78877651D01*
X124728000Y-78917651D02*
X132732000Y-78917651D01*
X124721000Y-78957651D02*
X132739000Y-78957651D01*
X124713000Y-78997651D02*
X132747000Y-78997651D01*
X124707000Y-79037651D02*
X132753000Y-79037651D01*
X124700000Y-79077651D02*
X132760000Y-79077651D01*
X124694000Y-79117651D02*
X132766000Y-79117651D01*
X124688000Y-79157651D02*
X132772000Y-79157651D01*
X124683000Y-79197651D02*
X132777000Y-79197651D01*
X124678000Y-79237651D02*
X132782000Y-79237651D01*
X124674000Y-79277651D02*
X132786000Y-79277651D01*
X124669000Y-79317651D02*
X132791000Y-79317651D01*
X124666000Y-79357651D02*
X132794000Y-79357651D01*
X124662000Y-79397651D02*
X132798000Y-79397651D01*
X124660000Y-79437651D02*
X132800000Y-79437651D01*
X124657000Y-79477651D02*
X132803000Y-79477651D01*
X124655000Y-79517651D02*
X132805000Y-79517651D01*
X124653000Y-79557651D02*
X132807000Y-79557651D01*
X124652000Y-79597651D02*
X132808000Y-79597651D01*
X124651000Y-79637651D02*
X132809000Y-79637651D01*
X124650000Y-79677651D02*
X132810000Y-79677651D01*
X124650000Y-79717651D02*
X132810000Y-79717651D01*
X126015000Y-83727349D02*
X126815000Y-83727349D01*
X126415000Y-84127349D02*
X126415000Y-83327349D01*
X132850000Y-79717651D02*
G75*
G02*
X124610000Y-79717651I-4120000J0D01*
G01*
X124610000Y-79717651D02*
G75*
G02*
X132850000Y-79717651I4120000J0D01*
G01*
%TO.C,R3*%
X139810000Y-112315000D02*
X136500000Y-112315000D01*
X126650000Y-112315000D02*
X129960000Y-112315000D01*
X136500000Y-113685000D02*
X129960000Y-113685000D01*
X129960000Y-110945000D01*
X136500000Y-110945000D01*
X136500000Y-113685000D01*
%TO.C,R1*%
X165310000Y-112315000D02*
X162000000Y-112315000D01*
X152150000Y-112315000D02*
X155460000Y-112315000D01*
X162000000Y-113685000D02*
X155460000Y-113685000D01*
X155460000Y-110945000D01*
X162000000Y-110945000D01*
X162000000Y-113685000D01*
%TO.C,+ Batt -*%
X166842500Y-90815000D02*
X166842500Y-98855000D01*
X156352500Y-90815000D02*
X166842500Y-90815000D01*
X166842500Y-99455000D02*
X166842500Y-101815000D01*
X166842500Y-101815000D02*
X156352500Y-101815000D01*
X165722500Y-101815000D02*
X165722500Y-90815000D01*
X157972500Y-101815000D02*
X157972500Y-90815000D01*
X156352500Y-101815000D02*
X156352500Y-90815000D01*
X167452500Y-99595000D02*
X166842500Y-99155000D01*
X167452500Y-98715000D01*
X167452500Y-99595000D01*
G36*
X167452500Y-99595000D02*
G01*
X166842500Y-99155000D01*
X167452500Y-98715000D01*
X167452500Y-99595000D01*
G37*
%TO.C,C1*%
X165850000Y-76695000D02*
X165850000Y-78135000D01*
X156610000Y-76695000D02*
X165850000Y-76695000D01*
X156610000Y-78135000D02*
X156610000Y-76695000D01*
X165850000Y-80495000D02*
X165850000Y-81935000D01*
X165850000Y-81935000D02*
X156610000Y-81935000D01*
X156610000Y-81935000D02*
X156610000Y-80495000D01*
%TD*%
M02*
