M48
; DRILL file {KiCad 9.0.5} date 2026-03-27T22:44:40+0530
; FORMAT={-:-/ absolute / metric / decimal}
; #@! TF.CreationDate,2026-03-27T22:44:40+05:30
; #@! TF.GenerationSoftware,Kicad,Pcbnew,9.0.5
; #@! TF.FileFunction,Plated,1,2,PTH
FMAT,2
METRIC
; #@! TA.AperFunction,Plated,PTH,ComponentDrill
T1C0.800
; #@! TA.AperFunction,Plated,PTH,ComponentDrill
T2C1.000
; #@! TA.AperFunction,Plated,PTH,ComponentDrill
T3C1.600
%
G90
G05
T1
X125.61Y-112.315
X128.73Y-77.218
X128.73Y-82.218
X140.85Y-112.315
X141.69Y-92.695
X141.69Y-100.315
X144.23Y-92.695
X144.23Y-100.315
X146.77Y-92.695
X146.77Y-100.315
X149.31Y-92.695
X149.31Y-100.315
X151.11Y-112.315
X166.35Y-112.315
T2
X156.23Y-79.315
X166.23Y-79.315
T3
X129.873Y-94.075
X129.873Y-99.155
X142.92Y-77.0
X148.0Y-77.0
X161.373Y-94.075
X161.373Y-99.155
M30
