%TF.GenerationSoftware,KiCad,Pcbnew,9.0.5*%
%TF.CreationDate,2026-03-27T22:44:31+05:30*%
%TF.ProjectId,Queaky Steam Toy,51756561-6b79-4205-9374-65616d20546f,rev?*%
%TF.SameCoordinates,Original*%
%TF.FileFunction,Copper,L2,Bot*%
%TF.FilePolarity,Positive*%
%FSLAX46Y46*%
G04 Gerber Fmt 4.6, Leading zero omitted, Abs format (unit mm)*
G04 Created by KiCad (PCBNEW 9.0.5) date 2026-03-27 22:44:31*
%MOMM*%
%LPD*%
G01*
G04 APERTURE LIST*
G04 Aperture macros list*
%AMRoundRect*
0 Rectangle with rounded corners*
0 $1 Rounding radius*
0 $2 $3 $4 $5 $6 $7 $8 $9 X,Y pos of 4 corners*
0 Add a 4 corners polygon primitive as box body*
4,1,4,$2,$3,$4,$5,$6,$7,$8,$9,$2,$3,0*
0 Add four circle primitives for the rounded corners*
1,1,$1+$1,$2,$3*
1,1,$1+$1,$4,$5*
1,1,$1+$1,$6,$7*
1,1,$1+$1,$8,$9*
0 Add four rect primitives between the rounded corners*
20,1,$1+$1,$2,$3,$4,$5,0*
20,1,$1+$1,$4,$5,$6,$7,0*
20,1,$1+$1,$6,$7,$8,$9,0*
20,1,$1+$1,$8,$9,$2,$3,0*%
G04 Aperture macros list end*
%ADD10C,0.250000*%
%TA.AperFunction,ComponentPad*%
%ADD11RoundRect,0.250001X0.949999X-0.949999X0.949999X0.949999X-0.949999X0.949999X-0.949999X-0.949999X0*%
%TD*%
%TA.AperFunction,ComponentPad*%
%ADD12C,2.400000*%
%TD*%
%TA.AperFunction,ComponentPad*%
%ADD13RoundRect,0.250000X-0.550000X0.550000X-0.550000X-0.550000X0.550000X-0.550000X0.550000X0.550000X0*%
%TD*%
%TA.AperFunction,ComponentPad*%
%ADD14C,1.600000*%
%TD*%
%TA.AperFunction,ComponentPad*%
%ADD15RoundRect,0.250001X-0.949999X-0.949999X0.949999X-0.949999X0.949999X0.949999X-0.949999X0.949999X0*%
%TD*%
%TA.AperFunction,ComponentPad*%
%ADD16RoundRect,0.250000X0.550000X-0.550000X0.550000X0.550000X-0.550000X0.550000X-0.550000X-0.550000X0*%
%TD*%
%TA.AperFunction,ComponentPad*%
%ADD17C,2.000000*%
%TD*%
%TA.AperFunction,Conductor*%
%ADD18C,1.000000*%
%TD*%
%TA.AperFunction,Conductor*%
%ADD19C,0.900000*%
%TD*%
G04 APERTURE END LIST*
D10*
G36*
X134682020Y-118682603D02*
G01*
X134870586Y-118747404D01*
X135028262Y-118854433D01*
X135150489Y-118997752D01*
X135238716Y-119171464D01*
X135299477Y-119385854D01*
X135331753Y-119618240D01*
X135343196Y-119886796D01*
X135331604Y-120138449D01*
X135298011Y-120368932D01*
X135235650Y-120583879D01*
X135143650Y-120763628D01*
X135017541Y-120914600D01*
X134856909Y-121030586D01*
X134665015Y-121102328D01*
X134414096Y-121128527D01*
X134162890Y-121105352D01*
X133974215Y-121042798D01*
X133817001Y-120937558D01*
X133695534Y-120793670D01*
X133608592Y-120618127D01*
X133548011Y-120398729D01*
X133515839Y-120159560D01*
X133504292Y-119876050D01*
X133515750Y-119634386D01*
X133549232Y-119409057D01*
X133611670Y-119197884D01*
X133703594Y-119020956D01*
X133829710Y-118872220D01*
X133990579Y-118756929D01*
X134182490Y-118685004D01*
X134433392Y-118658743D01*
X134682020Y-118682603D01*
G37*
G36*
X140972018Y-119476305D02*
G01*
X141096695Y-119532423D01*
X141191103Y-119622770D01*
X141256280Y-119740183D01*
X141296340Y-119890033D01*
X141307118Y-120081214D01*
X140279833Y-120081214D01*
X140292611Y-119954324D01*
X140319400Y-119837459D01*
X140361838Y-119729253D01*
X140417830Y-119639134D01*
X140489960Y-119563963D01*
X140579030Y-119505533D01*
X140681884Y-119468933D01*
X140807153Y-119455952D01*
X140972018Y-119476305D01*
G37*
G36*
X143941766Y-120949009D02*
G01*
X143812374Y-121077716D01*
X143694348Y-121164431D01*
X143567225Y-121219483D01*
X143427879Y-121237948D01*
X143269640Y-121214540D01*
X143158723Y-121150753D01*
X143087023Y-121049633D01*
X143061759Y-120910662D01*
X143070630Y-120824422D01*
X143095953Y-120751416D01*
X143139145Y-120687923D01*
X143203908Y-120632714D01*
X143284843Y-120591248D01*
X143395150Y-120559197D01*
X143518803Y-120541244D01*
X143679449Y-120534528D01*
X143941766Y-120534528D01*
X143941766Y-120949009D01*
G37*
G36*
X155512033Y-119535402D02*
G01*
X155634892Y-119581493D01*
X155736985Y-119656480D01*
X155816609Y-119756371D01*
X155874051Y-119875743D01*
X155913573Y-120020397D01*
X155934897Y-120175899D01*
X155942394Y-120352323D01*
X155932962Y-120540866D01*
X155906734Y-120698415D01*
X155860473Y-120841818D01*
X155797558Y-120956824D01*
X155713382Y-121050871D01*
X155609002Y-121119490D01*
X155487368Y-121160734D01*
X155338625Y-121175422D01*
X155178021Y-121158979D01*
X155054327Y-121113872D01*
X154951527Y-121039709D01*
X154872610Y-120940216D01*
X154815941Y-120821012D01*
X154775646Y-120676434D01*
X154753416Y-120520860D01*
X154745604Y-120344263D01*
X154755356Y-120155802D01*
X154782484Y-119998415D01*
X154829833Y-119854573D01*
X154893126Y-119738541D01*
X154977420Y-119643353D01*
X155081682Y-119574654D01*
X155202998Y-119533161D01*
X155349372Y-119518478D01*
X155512033Y-119535402D01*
G37*
G36*
X159853865Y-123089231D02*
G01*
X132305626Y-123089231D01*
X132305626Y-119912686D01*
X132750070Y-119912686D01*
X132762594Y-120227303D01*
X132797750Y-120497111D01*
X132852408Y-120727725D01*
X132934945Y-120948625D01*
X133037688Y-121134949D01*
X133159909Y-121291193D01*
X133306294Y-121424466D01*
X133475989Y-121533070D01*
X133672087Y-121617501D01*
X133879671Y-121673963D01*
X134118280Y-121709851D01*
X134392359Y-121722526D01*
X134605435Y-121711485D01*
X134789742Y-121680272D01*
X134961203Y-121632343D01*
X135094557Y-121580621D01*
X135251988Y-121743807D01*
X135421110Y-121885924D01*
X135598769Y-122010475D01*
X135766713Y-122110383D01*
X135935017Y-122193672D01*
X136082275Y-122251556D01*
X136222866Y-122290250D01*
X136318702Y-122300893D01*
X136359735Y-122291123D01*
X136395150Y-122248625D01*
X136421284Y-122155568D01*
X136430810Y-121996566D01*
X136417132Y-121803126D01*
X136397778Y-121740052D01*
X136373412Y-121704452D01*
X136289881Y-121658046D01*
X136147732Y-121602114D01*
X135927914Y-121487564D01*
X135794829Y-121399081D01*
X135627251Y-121263838D01*
X135732237Y-121144358D01*
X135826797Y-121004696D01*
X135906598Y-120851480D01*
X135974320Y-120679853D01*
X136026690Y-120497380D01*
X136065911Y-120293461D01*
X136089303Y-120080841D01*
X136097418Y-119847229D01*
X136084278Y-119542159D01*
X136047271Y-119279171D01*
X136008562Y-119127690D01*
X136703629Y-119127690D01*
X136703629Y-120620502D01*
X136715991Y-120887888D01*
X136748569Y-121086762D01*
X136809565Y-121264525D01*
X136899023Y-121416245D01*
X137019495Y-121542428D01*
X137175018Y-121640460D01*
X137358236Y-121700488D01*
X137597069Y-121722526D01*
X137816104Y-121695506D01*
X138030112Y-121613105D01*
X138231328Y-121481029D01*
X138441417Y-121284598D01*
X138441417Y-121566210D01*
X138455094Y-121614082D01*
X138501500Y-121648276D01*
X138590161Y-121668792D01*
X138736462Y-121675631D01*
X138877146Y-121668792D01*
X138967272Y-121648276D01*
X139015143Y-121614082D01*
X139028821Y-121566210D01*
X139028821Y-120374305D01*
X139580321Y-120374305D01*
X139601790Y-120703905D01*
X139660921Y-120970502D01*
X139764343Y-121206329D01*
X139905408Y-121391577D01*
X140086985Y-121535702D01*
X140313782Y-121640460D01*
X140570169Y-121700774D01*
X140883601Y-121722526D01*
X141222366Y-121699567D01*
X141503733Y-121646078D01*
X141705967Y-121582819D01*
X141802931Y-121531284D01*
X141831752Y-121491228D01*
X141848116Y-121440181D01*
X141856420Y-121367152D01*
X141859107Y-121263593D01*
X141854955Y-121149288D01*
X141839812Y-121078946D01*
X141812701Y-121044508D01*
X141771668Y-121034738D01*
X141664934Y-121061605D01*
X141499826Y-121120711D01*
X141263399Y-121180062D01*
X141121358Y-121199565D01*
X140946616Y-121206685D01*
X140776139Y-121194118D01*
X140641800Y-121159790D01*
X140524898Y-121101036D01*
X140434194Y-121023014D01*
X140367953Y-120928736D01*
X142389602Y-120928736D01*
X142406796Y-121117814D01*
X142455059Y-121273607D01*
X142534479Y-121410034D01*
X142639463Y-121521270D01*
X142767749Y-121607979D01*
X142921075Y-121671723D01*
X143088699Y-121709414D01*
X143277669Y-121722526D01*
X143504665Y-121699381D01*
X143705339Y-121632156D01*
X143886703Y-121524605D01*
X144048255Y-121380586D01*
X144048255Y-121574515D01*
X144071459Y-121634842D01*
X144150593Y-121666106D01*
X144329623Y-121675631D01*
X144503036Y-121666106D01*
X144589253Y-121634842D01*
X144616609Y-121574515D01*
X144616609Y-119933935D01*
X144600529Y-119691956D01*
X144556525Y-119499183D01*
X144477541Y-119330966D01*
X144365283Y-119199741D01*
X144219905Y-119100591D01*
X144030426Y-119027550D01*
X143816005Y-118986581D01*
X143539986Y-118971374D01*
X143227111Y-118997997D01*
X142947209Y-119066385D01*
X142722994Y-119156999D01*
X142589149Y-119244926D01*
X142537369Y-119332609D01*
X142523692Y-119464745D01*
X142531752Y-119578073D01*
X142554955Y-119664535D01*
X142593301Y-119718513D01*
X142646546Y-119737320D01*
X142692239Y-119729105D01*
X142759874Y-119698485D01*
X142933531Y-119612267D01*
X143172645Y-119526294D01*
X143313189Y-119497491D01*
X143479902Y-119487215D01*
X143605462Y-119494755D01*
X143699965Y-119514815D01*
X143781454Y-119550893D01*
X143842115Y-119600300D01*
X143887207Y-119664241D01*
X143918563Y-119745136D01*
X143941766Y-119947857D01*
X143941766Y-120096845D01*
X143704117Y-120096845D01*
X143388825Y-120110043D01*
X143132833Y-120146182D01*
X142900347Y-120211199D01*
X142721528Y-120298101D01*
X142575321Y-120415799D01*
X142472889Y-120557976D01*
X142411385Y-120725088D01*
X142391535Y-120910662D01*
X142389602Y-120928736D01*
X140367953Y-120928736D01*
X140365249Y-120924888D01*
X140316713Y-120804905D01*
X140289440Y-120672135D01*
X140279833Y-120518897D01*
X141763608Y-120518897D01*
X141853032Y-120503163D01*
X141917725Y-120458813D01*
X141958232Y-120387535D01*
X141973901Y-120273189D01*
X141973901Y-120164012D01*
X141956995Y-119913637D01*
X141908200Y-119689204D01*
X141823323Y-119483877D01*
X141703280Y-119311360D01*
X141546825Y-119170647D01*
X141346685Y-119061500D01*
X141116179Y-118995461D01*
X140823517Y-118971374D01*
X140543786Y-118996197D01*
X140303036Y-119067117D01*
X140088970Y-119184882D01*
X139911026Y-119344822D01*
X139770811Y-119543081D01*
X139665073Y-119787878D01*
X139602426Y-120058765D01*
X139600853Y-120081214D01*
X139580321Y-120374305D01*
X139028821Y-120374305D01*
X139028821Y-119127690D01*
X139012456Y-119079818D01*
X138957746Y-119045624D01*
X138853699Y-119025108D01*
X138687369Y-119018269D01*
X138520551Y-119025108D01*
X138415283Y-119045624D01*
X138360572Y-119079818D01*
X138345673Y-119127690D01*
X138345673Y-120748729D01*
X138192881Y-120919186D01*
X138062840Y-121031563D01*
X137926991Y-121105655D01*
X137799302Y-121128527D01*
X137700016Y-121118204D01*
X137617586Y-121088960D01*
X137546594Y-121041038D01*
X137489114Y-120976608D01*
X137445797Y-120898452D01*
X137413887Y-120802463D01*
X137396562Y-120689793D01*
X137389463Y-120509127D01*
X137389463Y-119127934D01*
X137373098Y-119080062D01*
X137316923Y-119045624D01*
X137211654Y-119025108D01*
X137045080Y-119018269D01*
X136879728Y-119025108D01*
X136773238Y-119045624D01*
X136718528Y-119079818D01*
X136703629Y-119127690D01*
X136008562Y-119127690D01*
X135989463Y-119052951D01*
X135903700Y-118836643D01*
X135797860Y-118652851D01*
X135672436Y-118497543D01*
X135523734Y-118364566D01*
X135353428Y-118255986D01*
X135158793Y-118171235D01*
X134953083Y-118113687D01*
X134720656Y-118077445D01*
X134457816Y-118064745D01*
X134179446Y-118080060D01*
X133934571Y-118123740D01*
X133718737Y-118193217D01*
X133515631Y-118292341D01*
X133338471Y-118414508D01*
X133184578Y-118560314D01*
X133054471Y-118727934D01*
X132945957Y-118920633D01*
X132859246Y-119141612D01*
X132799987Y-119372533D01*
X132762949Y-119628521D01*
X132751730Y-119876050D01*
X132750070Y-119912686D01*
X132305626Y-119912686D01*
X132305626Y-117978771D01*
X145302931Y-117978771D01*
X145302931Y-121566454D01*
X145319295Y-121614326D01*
X145375227Y-121648276D01*
X145480496Y-121668792D01*
X145647313Y-121675631D01*
X145813643Y-121668792D01*
X145918911Y-121648276D01*
X145975087Y-121614082D01*
X145991452Y-121566210D01*
X145991452Y-120275875D01*
X146803071Y-121560837D01*
X146846790Y-121618234D01*
X146916399Y-121652428D01*
X147031193Y-121670013D01*
X147212910Y-121675631D01*
X147390475Y-121668792D01*
X147498430Y-121649741D01*
X147552896Y-121616769D01*
X147568039Y-121568897D01*
X147552896Y-121496601D01*
X147505269Y-121402323D01*
X146679972Y-120125422D01*
X147393161Y-119316245D01*
X147454710Y-119217815D01*
X147471043Y-119148206D01*
X147703350Y-119148206D01*
X147739009Y-119294508D01*
X148577739Y-121536901D01*
X148619993Y-121609441D01*
X148684229Y-121660000D01*
X148359142Y-122471130D01*
X148342777Y-122549776D01*
X148378193Y-122603998D01*
X148476623Y-122635261D01*
X148651500Y-122644787D01*
X148849146Y-122636096D01*
X148970970Y-122614989D01*
X149063275Y-122572603D01*
X149105059Y-122517292D01*
X149400349Y-121660000D01*
X150211724Y-119269839D01*
X150233706Y-119150893D01*
X150224284Y-119105160D01*
X150196581Y-119070293D01*
X150153235Y-119046407D01*
X150081787Y-119029260D01*
X149886636Y-119018269D01*
X149676343Y-119029260D01*
X149590126Y-119063454D01*
X149568740Y-119094060D01*
X149547872Y-119157732D01*
X149023238Y-120823224D01*
X149014934Y-120823224D01*
X148441207Y-119190460D01*
X148402861Y-119093496D01*
X148345464Y-119042937D01*
X148238974Y-119022421D01*
X148053105Y-119018269D01*
X147846964Y-119029260D01*
X147776013Y-119046295D01*
X147736078Y-119069071D01*
X147711861Y-119102356D01*
X147703350Y-119148206D01*
X147471043Y-119148206D01*
X147475227Y-119130376D01*
X147458863Y-119079818D01*
X147400000Y-119045624D01*
X147287893Y-119025108D01*
X147117167Y-119018269D01*
X146946441Y-119025108D01*
X146834334Y-119045624D01*
X146761794Y-119083970D01*
X146712701Y-119141367D01*
X145991452Y-120111744D01*
X145991452Y-118425736D01*
X151587788Y-118425736D01*
X151594627Y-118562512D01*
X151615143Y-118653614D01*
X151647872Y-118704661D01*
X151694278Y-118721270D01*
X152579658Y-118721270D01*
X152579658Y-121561325D01*
X152597244Y-121610418D01*
X152656106Y-121645833D01*
X152766748Y-121667327D01*
X152940405Y-121675631D01*
X153113817Y-121667327D01*
X153224703Y-121645833D01*
X153283322Y-121610418D01*
X153301151Y-121561325D01*
X153301151Y-120371618D01*
X154038032Y-120371618D01*
X154058160Y-120684010D01*
X154114480Y-120945833D01*
X154213126Y-121180642D01*
X154349442Y-121369839D01*
X154526138Y-121520075D01*
X154748290Y-121632400D01*
X155001485Y-121698615D01*
X155313957Y-121722526D01*
X155636873Y-121695843D01*
X155901361Y-121621409D01*
X156133814Y-121497453D01*
X156319505Y-121334180D01*
X156463905Y-121132618D01*
X156568144Y-120891367D01*
X156628947Y-120625623D01*
X156650209Y-120322281D01*
X156630037Y-120007511D01*
X156573761Y-119745380D01*
X156475366Y-119510519D01*
X156340021Y-119321618D01*
X156164416Y-119171600D01*
X156117758Y-119148206D01*
X156879065Y-119148206D01*
X156914724Y-119294508D01*
X157753454Y-121536901D01*
X157795708Y-121609441D01*
X157859944Y-121660000D01*
X157534857Y-122471130D01*
X157518493Y-122549776D01*
X157553908Y-122603998D01*
X157652338Y-122635261D01*
X157827216Y-122644787D01*
X158024862Y-122636096D01*
X158146685Y-122614989D01*
X158238991Y-122572603D01*
X158280775Y-122517292D01*
X158576064Y-121660000D01*
X159387439Y-119269839D01*
X159409421Y-119150893D01*
X159399999Y-119105160D01*
X159372296Y-119070293D01*
X159328951Y-119046407D01*
X159257502Y-119029260D01*
X159062352Y-119018269D01*
X158852059Y-119029260D01*
X158765841Y-119063454D01*
X158744455Y-119094060D01*
X158723587Y-119157732D01*
X158198953Y-120823224D01*
X158190649Y-120823224D01*
X157616923Y-119190460D01*
X157578576Y-119093496D01*
X157521179Y-119042937D01*
X157414690Y-119022421D01*
X157228821Y-119018269D01*
X157022680Y-119029260D01*
X156951728Y-119046295D01*
X156911794Y-119069071D01*
X156887577Y-119102356D01*
X156879065Y-119148206D01*
X156117758Y-119148206D01*
X155942394Y-119060279D01*
X155689172Y-118995030D01*
X155374285Y-118971374D01*
X155051540Y-118998148D01*
X154788102Y-119072735D01*
X154556755Y-119196152D01*
X154371179Y-119358499D01*
X154226786Y-119559003D01*
X154121319Y-119801311D01*
X154059579Y-120068174D01*
X154039974Y-120344263D01*
X154038032Y-120371618D01*
X153301151Y-120371618D01*
X153301151Y-118721270D01*
X154186532Y-118721270D01*
X154231473Y-118704661D01*
X154265666Y-118653614D01*
X154286183Y-118562512D01*
X154293022Y-118425736D01*
X154286183Y-118284808D01*
X154265666Y-118192240D01*
X154231473Y-118142414D01*
X154186532Y-118127271D01*
X151694278Y-118127271D01*
X151647872Y-118142414D01*
X151615143Y-118192240D01*
X151594627Y-118284808D01*
X151587788Y-118425736D01*
X145991452Y-118425736D01*
X145991452Y-117978771D01*
X145975087Y-117929678D01*
X145918911Y-117893042D01*
X145813643Y-117869839D01*
X145647313Y-117861535D01*
X145480496Y-117869839D01*
X145375227Y-117893042D01*
X145319295Y-117929923D01*
X145302931Y-117978771D01*
X132305626Y-117978771D01*
X132305626Y-117417091D01*
X159853865Y-117417091D01*
X159853865Y-123089231D01*
G37*
D11*
%TO.P,+ Out -,1,Pin_1*%
%TO.N,Net-(J2-Pin_1)*%
X129872500Y-99155000D03*
D12*
%TO.P,+ Out -,2,Pin_2*%
%TO.N,/TR*%
X129872500Y-94075000D03*
%TD*%
D13*
%TO.P,U1,1,GND*%
%TO.N,GND*%
X149310000Y-92695000D03*
D14*
%TO.P,U1,2,TR*%
%TO.N,/TR*%
X146770000Y-92695000D03*
%TO.P,U1,3,Q*%
%TO.N,/out*%
X144230000Y-92695000D03*
%TO.P,U1,4,R*%
%TO.N,VCC*%
X141690000Y-92695000D03*
%TO.P,U1,5,CV*%
%TO.N,unconnected-(U1-CV-Pad5)*%
X141690000Y-100315000D03*
%TO.P,U1,6,THR*%
%TO.N,/TR*%
X144230000Y-100315000D03*
%TO.P,U1,7,DIS*%
%TO.N,/DIS*%
X146770000Y-100315000D03*
%TO.P,U1,8,VCC*%
%TO.N,VCC*%
X149310000Y-100315000D03*
%TD*%
D15*
%TO.P,+ Buzz -,1,Pin_1*%
%TO.N,Net-(J3-Pin_1)*%
X142920000Y-77000000D03*
D12*
%TO.P,+ Buzz -,2,Pin_2*%
%TO.N,GND*%
X148000000Y-77000000D03*
%TD*%
D16*
%TO.P,C2,1*%
%TO.N,/out*%
X128730000Y-82217651D03*
D14*
%TO.P,C2,2*%
%TO.N,Net-(J3-Pin_1)*%
X128730000Y-77217651D03*
%TD*%
%TO.P,R3,1*%
%TO.N,/DIS*%
X140850000Y-112315000D03*
%TO.P,R3,2*%
%TO.N,Net-(J2-Pin_1)*%
X125610000Y-112315000D03*
%TD*%
%TO.P,R1,1*%
%TO.N,VCC*%
X166350000Y-112315000D03*
%TO.P,R1,2*%
%TO.N,/DIS*%
X151110000Y-112315000D03*
%TD*%
D11*
%TO.P,+ Batt -,1,Pin_1*%
%TO.N,VCC*%
X161372500Y-99155000D03*
D12*
%TO.P,+ Batt -,2,Pin_2*%
%TO.N,GND*%
X161372500Y-94075000D03*
%TD*%
D17*
%TO.P,C1,1*%
%TO.N,/TR*%
X156230000Y-79315000D03*
%TO.P,C1,2*%
%TO.N,GND*%
X166230000Y-79315000D03*
%TD*%
D18*
%TO.N,GND*%
X163915000Y-77000000D02*
X166230000Y-79315000D01*
X148000000Y-77000000D02*
X163915000Y-77000000D01*
D19*
%TO.N,Net-(J3-Pin_1)*%
X142702349Y-77217651D02*
X142920000Y-77000000D01*
D18*
X128730000Y-77217651D02*
X142702349Y-77217651D01*
%TO.N,GND*%
X150690000Y-94075000D02*
X149310000Y-92695000D01*
X161372500Y-94075000D02*
X150690000Y-94075000D01*
%TO.N,/TR*%
X146770000Y-79695000D02*
X127770000Y-79695000D01*
X137990000Y-94075000D02*
X144230000Y-100315000D01*
X126770000Y-79695000D02*
X125270000Y-81195000D01*
X125270000Y-89472500D02*
X129872500Y-94075000D01*
X129872500Y-94075000D02*
X137990000Y-94075000D01*
X125270000Y-81195000D02*
X125270000Y-89472500D01*
X127770000Y-79695000D02*
X126770000Y-79695000D01*
D19*
X156230000Y-79315000D02*
X155850000Y-79695000D01*
X155850000Y-79695000D02*
X146770000Y-79695000D01*
D18*
X146770000Y-92695000D02*
X146770000Y-79695000D01*
D19*
%TO.N,/out*%
X128730000Y-82217651D02*
X133752651Y-82217651D01*
D18*
X133752651Y-82217651D02*
X144230000Y-92695000D01*
%TO.N,VCC*%
X166350000Y-104275000D02*
X166350000Y-112315000D01*
X161372500Y-99297500D02*
X166350000Y-104275000D01*
X141690000Y-92695000D02*
X149310000Y-100315000D01*
X161372500Y-99155000D02*
X161372500Y-99297500D01*
X161372500Y-99155000D02*
X150470000Y-99155000D01*
X150470000Y-99155000D02*
X149310000Y-100315000D01*
%TO.N,/DIS*%
X140850000Y-112315000D02*
X146770000Y-112315000D01*
X146770000Y-100315000D02*
X146770000Y-112315000D01*
X146770000Y-112315000D02*
X151110000Y-112315000D01*
%TO.N,Net-(J2-Pin_1)*%
X126310000Y-99155000D02*
X125610000Y-99855000D01*
X129872500Y-99155000D02*
X126310000Y-99155000D01*
X125610000Y-99855000D02*
X125610000Y-112315000D01*
%TD*%
%TA.AperFunction,Conductor*%
%TO.N,GND*%
G36*
X174912087Y-66652719D02*
G01*
X174957842Y-66705523D01*
X174969048Y-66757034D01*
X174969048Y-126468034D01*
X174949363Y-126535073D01*
X174896559Y-126580828D01*
X174845048Y-126592034D01*
X115134048Y-126592034D01*
X115067009Y-126572349D01*
X115021254Y-126519545D01*
X115010048Y-126468034D01*
X115010048Y-123378711D01*
X116149500Y-123378711D01*
X116149500Y-123621288D01*
X116181161Y-123861785D01*
X116243947Y-124096104D01*
X116336773Y-124320205D01*
X116336776Y-124320212D01*
X116458064Y-124530289D01*
X116458066Y-124530292D01*
X116458067Y-124530293D01*
X116605733Y-124722736D01*
X116605739Y-124722743D01*
X116777256Y-124894260D01*
X116777262Y-124894265D01*
X116969711Y-125041936D01*
X117179788Y-125163224D01*
X117403900Y-125256054D01*
X117638211Y-125318838D01*
X117818586Y-125342584D01*
X117878711Y-125350500D01*
X117878712Y-125350500D01*
X118121289Y-125350500D01*
X118169388Y-125344167D01*
X118361789Y-125318838D01*
X118596100Y-125256054D01*
X118820212Y-125163224D01*
X119030289Y-125041936D01*
X119222738Y-124894265D01*
X119394265Y-124722738D01*
X119541936Y-124530289D01*
X119663224Y-124320212D01*
X119756054Y-124096100D01*
X119818838Y-123861789D01*
X119850500Y-123621288D01*
X119850500Y-123378712D01*
X119850500Y-123378711D01*
X170149500Y-123378711D01*
X170149500Y-123621288D01*
X170181161Y-123861785D01*
X170243947Y-124096104D01*
X170336773Y-124320205D01*
X170336776Y-124320212D01*
X170458064Y-124530289D01*
X170458066Y-124530292D01*
X170458067Y-124530293D01*
X170605733Y-124722736D01*
X170605739Y-124722743D01*
X170777256Y-124894260D01*
X170777262Y-124894265D01*
X170969711Y-125041936D01*
X171179788Y-125163224D01*
X171403900Y-125256054D01*
X171638211Y-125318838D01*
X171818586Y-125342584D01*
X171878711Y-125350500D01*
X171878712Y-125350500D01*
X172121289Y-125350500D01*
X172169388Y-125344167D01*
X172361789Y-125318838D01*
X172596100Y-125256054D01*
X172820212Y-125163224D01*
X173030289Y-125041936D01*
X173222738Y-124894265D01*
X173394265Y-124722738D01*
X173541936Y-124530289D01*
X173663224Y-124320212D01*
X173756054Y-124096100D01*
X173818838Y-123861789D01*
X173850500Y-123621288D01*
X173850500Y-123378712D01*
X173818838Y-123138211D01*
X173756054Y-122903900D01*
X173663224Y-122679788D01*
X173541936Y-122469711D01*
X173394265Y-122277262D01*
X173394260Y-122277256D01*
X173222743Y-122105739D01*
X173222736Y-122105733D01*
X173030293Y-121958067D01*
X173030292Y-121958066D01*
X173030289Y-121958064D01*
X172820212Y-121836776D01*
X172820205Y-121836773D01*
X172596104Y-121743947D01*
X172361785Y-121681161D01*
X172121289Y-121649500D01*
X172121288Y-121649500D01*
X171878712Y-121649500D01*
X171878711Y-121649500D01*
X171638214Y-121681161D01*
X171403895Y-121743947D01*
X171179794Y-121836773D01*
X171179785Y-121836777D01*
X170969706Y-121958067D01*
X170777263Y-122105733D01*
X170777256Y-122105739D01*
X170605739Y-122277256D01*
X170605733Y-122277263D01*
X170458067Y-122469706D01*
X170336777Y-122679785D01*
X170336773Y-122679794D01*
X170243947Y-122903895D01*
X170181161Y-123138214D01*
X170149500Y-123378711D01*
X119850500Y-123378711D01*
X119818838Y-123138211D01*
X119756054Y-122903900D01*
X119663224Y-122679788D01*
X119645900Y-122649782D01*
X132745074Y-122649782D01*
X159414338Y-122649782D01*
X159414338Y-117856541D01*
X132745074Y-117856541D01*
X132745074Y-122649782D01*
X119645900Y-122649782D01*
X119541936Y-122469711D01*
X119394265Y-122277262D01*
X119394260Y-122277256D01*
X119222743Y-122105739D01*
X119222736Y-122105733D01*
X119030293Y-121958067D01*
X119030292Y-121958066D01*
X119030289Y-121958064D01*
X118820212Y-121836776D01*
X118820205Y-121836773D01*
X118596104Y-121743947D01*
X118361785Y-121681161D01*
X118121289Y-121649500D01*
X118121288Y-121649500D01*
X117878712Y-121649500D01*
X117878711Y-121649500D01*
X117638214Y-121681161D01*
X117403895Y-121743947D01*
X117179794Y-121836773D01*
X117179785Y-121836777D01*
X116969706Y-121958067D01*
X116777263Y-122105733D01*
X116777256Y-122105739D01*
X116605739Y-122277256D01*
X116605733Y-122277263D01*
X116458067Y-122469706D01*
X116336777Y-122679785D01*
X116336773Y-122679794D01*
X116243947Y-122903895D01*
X116181161Y-123138214D01*
X116149500Y-123378711D01*
X115010048Y-123378711D01*
X115010048Y-112211530D01*
X124559500Y-112211530D01*
X124559500Y-112418469D01*
X124599868Y-112621412D01*
X124599870Y-112621420D01*
X124679058Y-112812596D01*
X124794024Y-112984657D01*
X124940342Y-113130975D01*
X124940345Y-113130977D01*
X125112402Y-113245941D01*
X125303580Y-113325130D01*
X125506530Y-113365499D01*
X125506534Y-113365500D01*
X125506535Y-113365500D01*
X125713466Y-113365500D01*
X125713467Y-113365499D01*
X125916420Y-113325130D01*
X126107598Y-113245941D01*
X126279655Y-113130977D01*
X126425977Y-112984655D01*
X126540941Y-112812598D01*
X126620130Y-112621420D01*
X126660500Y-112418465D01*
X126660500Y-112211535D01*
X126620130Y-112008580D01*
X126540941Y-111817402D01*
X126425977Y-111645345D01*
X126425975Y-111645342D01*
X126396819Y-111616186D01*
X126363334Y-111554863D01*
X126360500Y-111528505D01*
X126360500Y-100217229D01*
X126380185Y-100150190D01*
X126396819Y-100129548D01*
X126584548Y-99941819D01*
X126645871Y-99908334D01*
X126672229Y-99905500D01*
X128298000Y-99905500D01*
X128365039Y-99925185D01*
X128410794Y-99977989D01*
X128422000Y-100029500D01*
X128422000Y-100152863D01*
X128422001Y-100152882D01*
X128428408Y-100212481D01*
X128478702Y-100347327D01*
X128478703Y-100347328D01*
X128478704Y-100347330D01*
X128564954Y-100462546D01*
X128680170Y-100548796D01*
X128680171Y-100548796D01*
X128680172Y-100548797D01*
X128815018Y-100599091D01*
X128815017Y-100599091D01*
X128821945Y-100599835D01*
X128874628Y-100605500D01*
X128874637Y-100605500D01*
X130870363Y-100605500D01*
X130870372Y-100605500D01*
X130929982Y-100599091D01*
X131064830Y-100548796D01*
X131180046Y-100462546D01*
X131266296Y-100347330D01*
X131316591Y-100212482D01*
X131323000Y-100152872D01*
X131323000Y-98157128D01*
X131316591Y-98097518D01*
X131266296Y-97962670D01*
X131180046Y-97847454D01*
X131064830Y-97761204D01*
X131064828Y-97761203D01*
X131064827Y-97761202D01*
X130929981Y-97710908D01*
X130929982Y-97710908D01*
X130870382Y-97704501D01*
X130870380Y-97704500D01*
X130870372Y-97704500D01*
X128874628Y-97704500D01*
X128874620Y-97704500D01*
X128874617Y-97704501D01*
X128815018Y-97710908D01*
X128680172Y-97761202D01*
X128680170Y-97761204D01*
X128564954Y-97847454D01*
X128478704Y-97962670D01*
X128478702Y-97962672D01*
X128428408Y-98097518D01*
X128422001Y-98157117D01*
X128422000Y-98157136D01*
X128422000Y-98280500D01*
X128402315Y-98347539D01*
X128349511Y-98393294D01*
X128298000Y-98404500D01*
X126236080Y-98404500D01*
X126091154Y-98433327D01*
X126091155Y-98433328D01*
X126091092Y-98433340D01*
X126091083Y-98433343D01*
X125954507Y-98489914D01*
X125954498Y-98489919D01*
X125831584Y-98572048D01*
X125831580Y-98572051D01*
X125027050Y-99376580D01*
X125027044Y-99376588D01*
X124977812Y-99450268D01*
X124977813Y-99450269D01*
X124944921Y-99499496D01*
X124944914Y-99499508D01*
X124888342Y-99636086D01*
X124888340Y-99636092D01*
X124859500Y-99781079D01*
X124859500Y-111528505D01*
X124839815Y-111595544D01*
X124823181Y-111616186D01*
X124794025Y-111645341D01*
X124794024Y-111645342D01*
X124679058Y-111817403D01*
X124599870Y-112008579D01*
X124599868Y-112008587D01*
X124559500Y-112211530D01*
X115010048Y-112211530D01*
X115010048Y-89546420D01*
X124519499Y-89546420D01*
X124548340Y-89691407D01*
X124548343Y-89691417D01*
X124604914Y-89827992D01*
X124637812Y-89877227D01*
X124637813Y-89877230D01*
X124687046Y-89950914D01*
X124687052Y-89950921D01*
X128414921Y-93678789D01*
X128448406Y-93740112D01*
X128449713Y-93785868D01*
X128422000Y-93960837D01*
X128422000Y-94189162D01*
X128457715Y-94414660D01*
X128528270Y-94631803D01*
X128561185Y-94696401D01*
X128631921Y-94835228D01*
X128766121Y-95019937D01*
X128927563Y-95181379D01*
X129112272Y-95315579D01*
X129208384Y-95364550D01*
X129315696Y-95419229D01*
X129315698Y-95419229D01*
X129315701Y-95419231D01*
X129382567Y-95440957D01*
X129532839Y-95489784D01*
X129758338Y-95525500D01*
X129758343Y-95525500D01*
X129986662Y-95525500D01*
X130212160Y-95489784D01*
X130429299Y-95419231D01*
X130632728Y-95315579D01*
X130817437Y-95181379D01*
X130978879Y-95019937D01*
X131083010Y-94876613D01*
X131138341Y-94833949D01*
X131183328Y-94825500D01*
X137627770Y-94825500D01*
X137694809Y-94845185D01*
X137715451Y-94861819D01*
X141909701Y-99056069D01*
X141943186Y-99117392D01*
X141938202Y-99187084D01*
X141896330Y-99243017D01*
X141830866Y-99267434D01*
X141797835Y-99265369D01*
X141793465Y-99264500D01*
X141586535Y-99264500D01*
X141586530Y-99264500D01*
X141383587Y-99304868D01*
X141383579Y-99304870D01*
X141192403Y-99384058D01*
X141020342Y-99499024D01*
X140874024Y-99645342D01*
X140759058Y-99817403D01*
X140679870Y-100008579D01*
X140679868Y-100008587D01*
X140639500Y-100211530D01*
X140639500Y-100418469D01*
X140679868Y-100621412D01*
X140679870Y-100621420D01*
X140759058Y-100812596D01*
X140874024Y-100984657D01*
X141020342Y-101130975D01*
X141020345Y-101130977D01*
X141192402Y-101245941D01*
X141383580Y-101325130D01*
X141586530Y-101365499D01*
X141586534Y-101365500D01*
X141586535Y-101365500D01*
X141793466Y-101365500D01*
X141793467Y-101365499D01*
X141996420Y-101325130D01*
X142187598Y-101245941D01*
X142359655Y-101130977D01*
X142505977Y-100984655D01*
X142620941Y-100812598D01*
X142700130Y-100621420D01*
X142740500Y-100418465D01*
X142740500Y-100211535D01*
X142739632Y-100207170D01*
X142745859Y-100137578D01*
X142788722Y-100082401D01*
X142854611Y-100059156D01*
X142922608Y-100075224D01*
X142948930Y-100095297D01*
X143143181Y-100289548D01*
X143176666Y-100350871D01*
X143179500Y-100377229D01*
X143179500Y-100418469D01*
X143219868Y-100621412D01*
X143219870Y-100621420D01*
X143299058Y-100812596D01*
X143414024Y-100984657D01*
X143560342Y-101130975D01*
X143560345Y-101130977D01*
X143732402Y-101245941D01*
X143923580Y-101325130D01*
X144126530Y-101365499D01*
X144126534Y-101365500D01*
X144126535Y-101365500D01*
X144333466Y-101365500D01*
X144333467Y-101365499D01*
X144536420Y-101325130D01*
X144727598Y-101245941D01*
X144899655Y-101130977D01*
X145045977Y-100984655D01*
X145160941Y-100812598D01*
X145240130Y-100621420D01*
X145280500Y-100418465D01*
X145280500Y-100211535D01*
X145240130Y-100008580D01*
X145160941Y-99817402D01*
X145045977Y-99645345D01*
X145045975Y-99645342D01*
X144899657Y-99499024D01*
X144813626Y-99441541D01*
X144727598Y-99384059D01*
X144709542Y-99376580D01*
X144536420Y-99304870D01*
X144536412Y-99304868D01*
X144333469Y-99264500D01*
X144333465Y-99264500D01*
X144292229Y-99264500D01*
X144225190Y-99244815D01*
X144204548Y-99228181D01*
X138468421Y-93492052D01*
X138468414Y-93492046D01*
X138394729Y-93442812D01*
X138394729Y-93442813D01*
X138345491Y-93409913D01*
X138208917Y-93353343D01*
X138208907Y-93353340D01*
X138063920Y-93324500D01*
X138063918Y-93324500D01*
X131183328Y-93324500D01*
X131116289Y-93304815D01*
X131083010Y-93273386D01*
X130978879Y-93130063D01*
X130817437Y-92968621D01*
X130632728Y-92834421D01*
X130429303Y-92730770D01*
X130212160Y-92660215D01*
X129986662Y-92624500D01*
X129986657Y-92624500D01*
X129758343Y-92624500D01*
X129758338Y-92624500D01*
X129583368Y-92652213D01*
X129514075Y-92643259D01*
X129476289Y-92617421D01*
X126056819Y-89197951D01*
X126023334Y-89136628D01*
X126020500Y-89110270D01*
X126020500Y-81619786D01*
X127679500Y-81619786D01*
X127679500Y-82815521D01*
X127679501Y-82815527D01*
X127685908Y-82875134D01*
X127736202Y-83009979D01*
X127736206Y-83009986D01*
X127822452Y-83125195D01*
X127822455Y-83125198D01*
X127937664Y-83211444D01*
X127937671Y-83211448D01*
X128072517Y-83261742D01*
X128072516Y-83261742D01*
X128079444Y-83262486D01*
X128132127Y-83268151D01*
X129327872Y-83268150D01*
X129387483Y-83261742D01*
X129522331Y-83211447D01*
X129637546Y-83125197D01*
X129723796Y-83009982D01*
X129727960Y-82998816D01*
X129769829Y-82942885D01*
X129835293Y-82918467D01*
X129844141Y-82918151D01*
X133340421Y-82918151D01*
X133407460Y-82937836D01*
X133428102Y-82954470D01*
X141909701Y-91436069D01*
X141943186Y-91497392D01*
X141938202Y-91567084D01*
X141896330Y-91623017D01*
X141830866Y-91647434D01*
X141797835Y-91645369D01*
X141793465Y-91644500D01*
X141586535Y-91644500D01*
X141586530Y-91644500D01*
X141383587Y-91684868D01*
X141383579Y-91684870D01*
X141192403Y-91764058D01*
X141020342Y-91879024D01*
X140874024Y-92025342D01*
X140759058Y-92197403D01*
X140679870Y-92388579D01*
X140679868Y-92388587D01*
X140639500Y-92591530D01*
X140639500Y-92798469D01*
X140679868Y-93001412D01*
X140679870Y-93001420D01*
X140759058Y-93192596D01*
X140874024Y-93364657D01*
X141020342Y-93510975D01*
X141020345Y-93510977D01*
X141192402Y-93625941D01*
X141383580Y-93705130D01*
X141572182Y-93742645D01*
X141586530Y-93745499D01*
X141586534Y-93745500D01*
X141586535Y-93745500D01*
X141627770Y-93745500D01*
X141694809Y-93765185D01*
X141715451Y-93781819D01*
X146989702Y-99056069D01*
X147023187Y-99117392D01*
X147018203Y-99187084D01*
X146976331Y-99243017D01*
X146910867Y-99267434D01*
X146877838Y-99265369D01*
X146873469Y-99264500D01*
X146873465Y-99264500D01*
X146666535Y-99264500D01*
X146666530Y-99264500D01*
X146463587Y-99304868D01*
X146463579Y-99304870D01*
X146272403Y-99384058D01*
X146100342Y-99499024D01*
X145954024Y-99645342D01*
X145839058Y-99817403D01*
X145759870Y-100008579D01*
X145759868Y-100008587D01*
X145719500Y-100211530D01*
X145719500Y-100418469D01*
X145756703Y-100605500D01*
X145759870Y-100621420D01*
X145839059Y-100812598D01*
X145954023Y-100984655D01*
X145983181Y-101013813D01*
X146016666Y-101075134D01*
X146019500Y-101101494D01*
X146019500Y-111440500D01*
X145999815Y-111507539D01*
X145947011Y-111553294D01*
X145895500Y-111564500D01*
X141636495Y-111564500D01*
X141569456Y-111544815D01*
X141548814Y-111528181D01*
X141519657Y-111499024D01*
X141432069Y-111440500D01*
X141347598Y-111384059D01*
X141156420Y-111304870D01*
X141156412Y-111304868D01*
X140953469Y-111264500D01*
X140953465Y-111264500D01*
X140746535Y-111264500D01*
X140746530Y-111264500D01*
X140543587Y-111304868D01*
X140543579Y-111304870D01*
X140352403Y-111384058D01*
X140180342Y-111499024D01*
X140034024Y-111645342D01*
X139919058Y-111817403D01*
X139839870Y-112008579D01*
X139839868Y-112008587D01*
X139799500Y-112211530D01*
X139799500Y-112418469D01*
X139839868Y-112621412D01*
X139839870Y-112621420D01*
X139919058Y-112812596D01*
X140034024Y-112984657D01*
X140180342Y-113130975D01*
X140180345Y-113130977D01*
X140352402Y-113245941D01*
X140543580Y-113325130D01*
X140746530Y-113365499D01*
X140746534Y-113365500D01*
X140746535Y-113365500D01*
X140953466Y-113365500D01*
X140953467Y-113365499D01*
X141156420Y-113325130D01*
X141347598Y-113245941D01*
X141519655Y-113130977D01*
X141519658Y-113130974D01*
X141548814Y-113101819D01*
X141610137Y-113068334D01*
X141636495Y-113065500D01*
X146696082Y-113065500D01*
X150323505Y-113065500D01*
X150390544Y-113085185D01*
X150411186Y-113101819D01*
X150440342Y-113130975D01*
X150440345Y-113130977D01*
X150612402Y-113245941D01*
X150803580Y-113325130D01*
X151006530Y-113365499D01*
X151006534Y-113365500D01*
X151006535Y-113365500D01*
X151213466Y-113365500D01*
X151213467Y-113365499D01*
X151416420Y-113325130D01*
X151607598Y-113245941D01*
X151779655Y-113130977D01*
X151925977Y-112984655D01*
X152040941Y-112812598D01*
X152120130Y-112621420D01*
X152160500Y-112418465D01*
X152160500Y-112211535D01*
X152120130Y-112008580D01*
X152040941Y-111817402D01*
X151925977Y-111645345D01*
X151925975Y-111645342D01*
X151779657Y-111499024D01*
X151692069Y-111440500D01*
X151607598Y-111384059D01*
X151416420Y-111304870D01*
X151416412Y-111304868D01*
X151213469Y-111264500D01*
X151213465Y-111264500D01*
X151006535Y-111264500D01*
X151006530Y-111264500D01*
X150803587Y-111304868D01*
X150803579Y-111304870D01*
X150612403Y-111384058D01*
X150440342Y-111499024D01*
X150440341Y-111499025D01*
X150411186Y-111528181D01*
X150349863Y-111561666D01*
X150323505Y-111564500D01*
X147644500Y-111564500D01*
X147577461Y-111544815D01*
X147531706Y-111492011D01*
X147520500Y-111440500D01*
X147520500Y-101101494D01*
X147540185Y-101034455D01*
X147556815Y-101013816D01*
X147585977Y-100984655D01*
X147700941Y-100812598D01*
X147780130Y-100621420D01*
X147820500Y-100418465D01*
X147820500Y-100211535D01*
X147819632Y-100207170D01*
X147825859Y-100137578D01*
X147868722Y-100082401D01*
X147934611Y-100059156D01*
X148002608Y-100075224D01*
X148028930Y-100095297D01*
X148223181Y-100289548D01*
X148256666Y-100350871D01*
X148259500Y-100377229D01*
X148259500Y-100418469D01*
X148299868Y-100621412D01*
X148299870Y-100621420D01*
X148379058Y-100812596D01*
X148494024Y-100984657D01*
X148640342Y-101130975D01*
X148640345Y-101130977D01*
X148812402Y-101245941D01*
X149003580Y-101325130D01*
X149206530Y-101365499D01*
X149206534Y-101365500D01*
X149206535Y-101365500D01*
X149413466Y-101365500D01*
X149413467Y-101365499D01*
X149616420Y-101325130D01*
X149807598Y-101245941D01*
X149979655Y-101130977D01*
X150125977Y-100984655D01*
X150240941Y-100812598D01*
X150320130Y-100621420D01*
X150360500Y-100418465D01*
X150360500Y-100377229D01*
X150380185Y-100310191D01*
X150396819Y-100289549D01*
X150744549Y-99941819D01*
X150805872Y-99908334D01*
X150832230Y-99905500D01*
X159798000Y-99905500D01*
X159865039Y-99925185D01*
X159910794Y-99977989D01*
X159922000Y-100029500D01*
X159922000Y-100152863D01*
X159922001Y-100152882D01*
X159928408Y-100212481D01*
X159978702Y-100347327D01*
X159978703Y-100347328D01*
X159978704Y-100347330D01*
X160064954Y-100462546D01*
X160180170Y-100548796D01*
X160180171Y-100548796D01*
X160180172Y-100548797D01*
X160315018Y-100599091D01*
X160315017Y-100599091D01*
X160321945Y-100599835D01*
X160374628Y-100605500D01*
X161567770Y-100605500D01*
X161634809Y-100625185D01*
X161655451Y-100641819D01*
X165563181Y-104549549D01*
X165596666Y-104610872D01*
X165599500Y-104637230D01*
X165599500Y-111528505D01*
X165579815Y-111595544D01*
X165563181Y-111616186D01*
X165534025Y-111645341D01*
X165534024Y-111645342D01*
X165419058Y-111817403D01*
X165339870Y-112008579D01*
X165339868Y-112008587D01*
X165299500Y-112211530D01*
X165299500Y-112418469D01*
X165339868Y-112621412D01*
X165339870Y-112621420D01*
X165419058Y-112812596D01*
X165534024Y-112984657D01*
X165680342Y-113130975D01*
X165680345Y-113130977D01*
X165852402Y-113245941D01*
X166043580Y-113325130D01*
X166246530Y-113365499D01*
X166246534Y-113365500D01*
X166246535Y-113365500D01*
X166453466Y-113365500D01*
X166453467Y-113365499D01*
X166656420Y-113325130D01*
X166847598Y-113245941D01*
X167019655Y-113130977D01*
X167165977Y-112984655D01*
X167280941Y-112812598D01*
X167360130Y-112621420D01*
X167400500Y-112418465D01*
X167400500Y-112211535D01*
X167360130Y-112008580D01*
X167280941Y-111817402D01*
X167165977Y-111645345D01*
X167165975Y-111645342D01*
X167136819Y-111616186D01*
X167103334Y-111554863D01*
X167100500Y-111528505D01*
X167100500Y-104201079D01*
X167071659Y-104056092D01*
X167071658Y-104056091D01*
X167071658Y-104056087D01*
X167015084Y-103919505D01*
X166982186Y-103870270D01*
X166982185Y-103870268D01*
X166932956Y-103796589D01*
X166932952Y-103796584D01*
X162859319Y-99722951D01*
X162825834Y-99661628D01*
X162823000Y-99635270D01*
X162823000Y-98157136D01*
X162823000Y-98157128D01*
X162816591Y-98097518D01*
X162766296Y-97962670D01*
X162680046Y-97847454D01*
X162564830Y-97761204D01*
X162564828Y-97761203D01*
X162564827Y-97761202D01*
X162429981Y-97710908D01*
X162429982Y-97710908D01*
X162370382Y-97704501D01*
X162370380Y-97704500D01*
X162370372Y-97704500D01*
X160374628Y-97704500D01*
X160374620Y-97704500D01*
X160374617Y-97704501D01*
X160315018Y-97710908D01*
X160180172Y-97761202D01*
X160180170Y-97761204D01*
X160064954Y-97847454D01*
X159978704Y-97962670D01*
X159978702Y-97962672D01*
X159928408Y-98097518D01*
X159922001Y-98157117D01*
X159922000Y-98157136D01*
X159922000Y-98280500D01*
X159902315Y-98347539D01*
X159849511Y-98393294D01*
X159798000Y-98404500D01*
X150396076Y-98404500D01*
X150367242Y-98410234D01*
X150367243Y-98410235D01*
X150251093Y-98433339D01*
X150251083Y-98433342D01*
X150171081Y-98466479D01*
X150171082Y-98466480D01*
X150114502Y-98489917D01*
X150065270Y-98522811D01*
X150065271Y-98522812D01*
X149991581Y-98572049D01*
X149991578Y-98572052D01*
X149397680Y-99165951D01*
X149336357Y-99199436D01*
X149266665Y-99194452D01*
X149222318Y-99165951D01*
X144010297Y-93953930D01*
X143976812Y-93892607D01*
X143981796Y-93822915D01*
X144023668Y-93766982D01*
X144089132Y-93742565D01*
X144122170Y-93744632D01*
X144123438Y-93744884D01*
X144126533Y-93745499D01*
X144126534Y-93745500D01*
X144126535Y-93745500D01*
X144333466Y-93745500D01*
X144333467Y-93745499D01*
X144536420Y-93705130D01*
X144727598Y-93625941D01*
X144899655Y-93510977D01*
X145045977Y-93364655D01*
X145160941Y-93192598D01*
X145240130Y-93001420D01*
X145280500Y-92798465D01*
X145280500Y-92591535D01*
X145240130Y-92388580D01*
X145160941Y-92197402D01*
X145045977Y-92025345D01*
X145045975Y-92025342D01*
X144899657Y-91879024D01*
X144813626Y-91821541D01*
X144727598Y-91764059D01*
X144536420Y-91684870D01*
X144536412Y-91684868D01*
X144333469Y-91644500D01*
X144333465Y-91644500D01*
X144292230Y-91644500D01*
X144225191Y-91624815D01*
X144204549Y-91608181D01*
X134231072Y-81634703D01*
X134231068Y-81634700D01*
X134231067Y-81634699D01*
X134108145Y-81552567D01*
X134108143Y-81552566D01*
X134108141Y-81552565D01*
X133971563Y-81495993D01*
X133971557Y-81495991D01*
X133826570Y-81467151D01*
X133826568Y-81467151D01*
X133678734Y-81467151D01*
X133678732Y-81467151D01*
X133533744Y-81495991D01*
X133533734Y-81495994D01*
X133505446Y-81507712D01*
X133457994Y-81517151D01*
X129844141Y-81517151D01*
X129777102Y-81497466D01*
X129731347Y-81444662D01*
X129727969Y-81436510D01*
X129723796Y-81425320D01*
X129723793Y-81425316D01*
X129723793Y-81425315D01*
X129637547Y-81310106D01*
X129637544Y-81310103D01*
X129522335Y-81223857D01*
X129522328Y-81223853D01*
X129387482Y-81173559D01*
X129387483Y-81173559D01*
X129327883Y-81167152D01*
X129327881Y-81167151D01*
X129327873Y-81167151D01*
X129327864Y-81167151D01*
X128132129Y-81167151D01*
X128132123Y-81167152D01*
X128072516Y-81173559D01*
X127937671Y-81223853D01*
X127937664Y-81223857D01*
X127822455Y-81310103D01*
X127822452Y-81310106D01*
X127736206Y-81425315D01*
X127736202Y-81425322D01*
X127685908Y-81560168D01*
X127679501Y-81619767D01*
X127679500Y-81619786D01*
X126020500Y-81619786D01*
X126020500Y-81557229D01*
X126040185Y-81490190D01*
X126056819Y-81469548D01*
X127044548Y-80481819D01*
X127105871Y-80448334D01*
X127132229Y-80445500D01*
X127696082Y-80445500D01*
X145895500Y-80445500D01*
X145962539Y-80465185D01*
X146008294Y-80517989D01*
X146019500Y-80569500D01*
X146019500Y-91908505D01*
X145999815Y-91975544D01*
X145983181Y-91996186D01*
X145954025Y-92025341D01*
X145954024Y-92025342D01*
X145839058Y-92197403D01*
X145759870Y-92388579D01*
X145759868Y-92388587D01*
X145719500Y-92591530D01*
X145719500Y-92798469D01*
X145759868Y-93001412D01*
X145759870Y-93001420D01*
X145839058Y-93192596D01*
X145954024Y-93364657D01*
X146100342Y-93510975D01*
X146100345Y-93510977D01*
X146272402Y-93625941D01*
X146463580Y-93705130D01*
X146652182Y-93742645D01*
X146666530Y-93745499D01*
X146666534Y-93745500D01*
X146666535Y-93745500D01*
X146873466Y-93745500D01*
X146873467Y-93745499D01*
X147076420Y-93705130D01*
X147267598Y-93625941D01*
X147439655Y-93510977D01*
X147585977Y-93364655D01*
X147700941Y-93192598D01*
X147771440Y-93022398D01*
X147815280Y-92967996D01*
X147881574Y-92945931D01*
X147949273Y-92963210D01*
X147996884Y-93014347D01*
X148010000Y-93069851D01*
X148010000Y-93294970D01*
X148010001Y-93294987D01*
X148020494Y-93397697D01*
X148075641Y-93564119D01*
X148075643Y-93564124D01*
X148167684Y-93713345D01*
X148291654Y-93837315D01*
X148440875Y-93929356D01*
X148440880Y-93929358D01*
X148607302Y-93984505D01*
X148607309Y-93984506D01*
X148710019Y-93994999D01*
X149059999Y-93994999D01*
X149060000Y-93994998D01*
X149060000Y-93010686D01*
X149064394Y-93015080D01*
X149155606Y-93067741D01*
X149257339Y-93095000D01*
X149362661Y-93095000D01*
X149464394Y-93067741D01*
X149555606Y-93015080D01*
X149560000Y-93010686D01*
X149560000Y-93994999D01*
X149909972Y-93994999D01*
X149909986Y-93994998D01*
X150012697Y-93984505D01*
X150075859Y-93963575D01*
X159672500Y-93963575D01*
X159672500Y-94186424D01*
X159701585Y-94407354D01*
X159701588Y-94407367D01*
X159759263Y-94622618D01*
X159844545Y-94828502D01*
X159844554Y-94828520D01*
X159955964Y-95021491D01*
X159955973Y-95021504D01*
X160006540Y-95087403D01*
X160006543Y-95087403D01*
X160656652Y-94437293D01*
X160663549Y-94453942D01*
X160751099Y-94584970D01*
X160862530Y-94696401D01*
X160993558Y-94783951D01*
X161010205Y-94790846D01*
X160360095Y-95440955D01*
X160360095Y-95440956D01*
X160426007Y-95491533D01*
X160618985Y-95602949D01*
X160618997Y-95602954D01*
X160824881Y-95688236D01*
X161040132Y-95745911D01*
X161040145Y-95745914D01*
X161261075Y-95775000D01*
X161483925Y-95775000D01*
X161704854Y-95745914D01*
X161704867Y-95745911D01*
X161920118Y-95688236D01*
X162126002Y-95602954D01*
X162126014Y-95602949D01*
X162318998Y-95491530D01*
X162384903Y-95440957D01*
X162384904Y-95440956D01*
X161734794Y-94790846D01*
X161751442Y-94783951D01*
X161882470Y-94696401D01*
X161993901Y-94584970D01*
X162081451Y-94453942D01*
X162088346Y-94437294D01*
X162738456Y-95087404D01*
X162738457Y-95087403D01*
X162789030Y-95021498D01*
X162900449Y-94828514D01*
X162900454Y-94828502D01*
X162985736Y-94622618D01*
X163043411Y-94407367D01*
X163043414Y-94407354D01*
X163072500Y-94186424D01*
X163072500Y-93963575D01*
X163043414Y-93742645D01*
X163043411Y-93742632D01*
X162985736Y-93527381D01*
X162900454Y-93321497D01*
X162900449Y-93321485D01*
X162789033Y-93128507D01*
X162738456Y-93062595D01*
X162738455Y-93062595D01*
X162088346Y-93712704D01*
X162081451Y-93696058D01*
X161993901Y-93565030D01*
X161882470Y-93453599D01*
X161751442Y-93366049D01*
X161734793Y-93359152D01*
X162384903Y-92709043D01*
X162384903Y-92709040D01*
X162319004Y-92658473D01*
X162318991Y-92658464D01*
X162126020Y-92547054D01*
X162126002Y-92547045D01*
X161920118Y-92461763D01*
X161704867Y-92404088D01*
X161704854Y-92404085D01*
X161483925Y-92375000D01*
X161261075Y-92375000D01*
X161040145Y-92404085D01*
X161040132Y-92404088D01*
X160824881Y-92461763D01*
X160618997Y-92547045D01*
X160618979Y-92547054D01*
X160426011Y-92658462D01*
X160360095Y-92709042D01*
X161010206Y-93359152D01*
X160993558Y-93366049D01*
X160862530Y-93453599D01*
X160751099Y-93565030D01*
X160663549Y-93696058D01*
X160656653Y-93712706D01*
X160006542Y-93062595D01*
X159955962Y-93128511D01*
X159844554Y-93321479D01*
X159844545Y-93321497D01*
X159759263Y-93527381D01*
X159701588Y-93742632D01*
X159701585Y-93742645D01*
X159672500Y-93963575D01*
X150075859Y-93963575D01*
X150179119Y-93929358D01*
X150179124Y-93929356D01*
X150301331Y-93853978D01*
X150301332Y-93853977D01*
X150328343Y-93837317D01*
X150452315Y-93713345D01*
X150544356Y-93564124D01*
X150544358Y-93564119D01*
X150599505Y-93397697D01*
X150599506Y-93397690D01*
X150609999Y-93294986D01*
X150610000Y-93294973D01*
X150610000Y-92945000D01*
X149625686Y-92945000D01*
X149630080Y-92940606D01*
X149682741Y-92849394D01*
X149710000Y-92747661D01*
X149710000Y-92642339D01*
X149682741Y-92540606D01*
X149630080Y-92449394D01*
X149625686Y-92445000D01*
X150609999Y-92445000D01*
X150609999Y-92095028D01*
X150609998Y-92095013D01*
X150599505Y-91992302D01*
X150544358Y-91825880D01*
X150544356Y-91825875D01*
X150452315Y-91676654D01*
X150328345Y-91552684D01*
X150179124Y-91460643D01*
X150179119Y-91460641D01*
X150012697Y-91405494D01*
X150012690Y-91405493D01*
X149909986Y-91395000D01*
X149560000Y-91395000D01*
X149560000Y-92379314D01*
X149555606Y-92374920D01*
X149464394Y-92322259D01*
X149362661Y-92295000D01*
X149257339Y-92295000D01*
X149155606Y-92322259D01*
X149064394Y-92374920D01*
X149060000Y-92379314D01*
X149060000Y-91395000D01*
X148710028Y-91395000D01*
X148710012Y-91395001D01*
X148607302Y-91405494D01*
X148440880Y-91460641D01*
X148440875Y-91460643D01*
X148291654Y-91552684D01*
X148167684Y-91676654D01*
X148075643Y-91825875D01*
X148075641Y-91825880D01*
X148020494Y-91992302D01*
X148020493Y-91992309D01*
X148010000Y-92095013D01*
X148010000Y-92320146D01*
X147990315Y-92387185D01*
X147937511Y-92432940D01*
X147868353Y-92442884D01*
X147804797Y-92413859D01*
X147771439Y-92367599D01*
X147700941Y-92197402D01*
X147585977Y-92025345D01*
X147585975Y-92025342D01*
X147556819Y-91996186D01*
X147523334Y-91934863D01*
X147520500Y-91908505D01*
X147520500Y-80519500D01*
X147540185Y-80452461D01*
X147592989Y-80406706D01*
X147644500Y-80395500D01*
X155566367Y-80395500D01*
X155622662Y-80409015D01*
X155749970Y-80473882D01*
X155749972Y-80473882D01*
X155749975Y-80473884D01*
X155850317Y-80506487D01*
X155937173Y-80534709D01*
X156131578Y-80565500D01*
X156131583Y-80565500D01*
X156328422Y-80565500D01*
X156522826Y-80534709D01*
X156569634Y-80519500D01*
X156710025Y-80473884D01*
X156885405Y-80384524D01*
X157044646Y-80268828D01*
X157183828Y-80129646D01*
X157299524Y-79970405D01*
X157388884Y-79795025D01*
X157449709Y-79607826D01*
X157465521Y-79507993D01*
X157480500Y-79413422D01*
X157480500Y-79216578D01*
X157479692Y-79211479D01*
X157479692Y-79211477D01*
X157479691Y-79211473D01*
X157477390Y-79196947D01*
X164730000Y-79196947D01*
X164730000Y-79433052D01*
X164766934Y-79666247D01*
X164839897Y-79890802D01*
X164947087Y-80101174D01*
X165007338Y-80184104D01*
X165007340Y-80184105D01*
X165747037Y-79444408D01*
X165764075Y-79507993D01*
X165829901Y-79622007D01*
X165922993Y-79715099D01*
X166037007Y-79780925D01*
X166100590Y-79797962D01*
X165360893Y-80537658D01*
X165443828Y-80597914D01*
X165654197Y-80705102D01*
X165878752Y-80778065D01*
X165878751Y-80778065D01*
X166111948Y-80815000D01*
X166348052Y-80815000D01*
X166581247Y-80778065D01*
X166805802Y-80705102D01*
X167016163Y-80597918D01*
X167016169Y-80597914D01*
X167099104Y-80537658D01*
X167099105Y-80537658D01*
X166359408Y-79797962D01*
X166422993Y-79780925D01*
X166537007Y-79715099D01*
X166630099Y-79622007D01*
X166695925Y-79507993D01*
X166712962Y-79444408D01*
X167452658Y-80184105D01*
X167452658Y-80184104D01*
X167512914Y-80101169D01*
X167512918Y-80101163D01*
X167620102Y-79890802D01*
X167693065Y-79666247D01*
X167730000Y-79433052D01*
X167730000Y-79196947D01*
X167693065Y-78963752D01*
X167620102Y-78739197D01*
X167512914Y-78528828D01*
X167452658Y-78445894D01*
X167452658Y-78445893D01*
X166712962Y-79185590D01*
X166695925Y-79122007D01*
X166630099Y-79007993D01*
X166537007Y-78914901D01*
X166422993Y-78849075D01*
X166359409Y-78832037D01*
X167099105Y-78092340D01*
X167099104Y-78092338D01*
X167016174Y-78032087D01*
X166805802Y-77924897D01*
X166581247Y-77851934D01*
X166581248Y-77851934D01*
X166348052Y-77815000D01*
X166111948Y-77815000D01*
X165878752Y-77851934D01*
X165654197Y-77924897D01*
X165443830Y-78032084D01*
X165360894Y-78092340D01*
X166100591Y-78832037D01*
X166037007Y-78849075D01*
X165922993Y-78914901D01*
X165829901Y-79007993D01*
X165764075Y-79122007D01*
X165747037Y-79185591D01*
X165007340Y-78445894D01*
X164947084Y-78528830D01*
X164839897Y-78739197D01*
X164766934Y-78963752D01*
X164730000Y-79196947D01*
X157477390Y-79196947D01*
X157449709Y-79022173D01*
X157388882Y-78834970D01*
X157305291Y-78670914D01*
X157299524Y-78659595D01*
X157183828Y-78500354D01*
X157044646Y-78361172D01*
X156885405Y-78245476D01*
X156881900Y-78243690D01*
X156710029Y-78156117D01*
X156522826Y-78095290D01*
X156328422Y-78064500D01*
X156328417Y-78064500D01*
X156131583Y-78064500D01*
X156131578Y-78064500D01*
X155937173Y-78095290D01*
X155749970Y-78156117D01*
X155574594Y-78245476D01*
X155489165Y-78307545D01*
X155415354Y-78361172D01*
X155415352Y-78361174D01*
X155415351Y-78361174D01*
X155276174Y-78500351D01*
X155276174Y-78500352D01*
X155276172Y-78500354D01*
X155255483Y-78528830D01*
X155160476Y-78659594D01*
X155071117Y-78834972D01*
X155047123Y-78908818D01*
X155007685Y-78966494D01*
X154943327Y-78993692D01*
X154929192Y-78994500D01*
X147064658Y-78994500D01*
X147017206Y-78985061D01*
X146988917Y-78973343D01*
X146988907Y-78973340D01*
X146843920Y-78944500D01*
X146843918Y-78944500D01*
X127843918Y-78944500D01*
X126843917Y-78944500D01*
X126696082Y-78944500D01*
X126696080Y-78944500D01*
X126551092Y-78973340D01*
X126551082Y-78973343D01*
X126414511Y-79029912D01*
X126414498Y-79029919D01*
X126291584Y-79112048D01*
X126291580Y-79112051D01*
X124687050Y-80716580D01*
X124687044Y-80716588D01*
X124637812Y-80790268D01*
X124637813Y-80790269D01*
X124604921Y-80839496D01*
X124604914Y-80839508D01*
X124548342Y-80976086D01*
X124548340Y-80976092D01*
X124519500Y-81121079D01*
X124519500Y-81121082D01*
X124519500Y-89546418D01*
X124519500Y-89546420D01*
X124519499Y-89546420D01*
X115010048Y-89546420D01*
X115010048Y-77114181D01*
X127679500Y-77114181D01*
X127679500Y-77321120D01*
X127719868Y-77524063D01*
X127719870Y-77524071D01*
X127799058Y-77715247D01*
X127914024Y-77887308D01*
X128060342Y-78033626D01*
X128060345Y-78033628D01*
X128232402Y-78148592D01*
X128423580Y-78227781D01*
X128626530Y-78268150D01*
X128626534Y-78268151D01*
X128626535Y-78268151D01*
X128833466Y-78268151D01*
X128833467Y-78268150D01*
X129036420Y-78227781D01*
X129227598Y-78148592D01*
X129399655Y-78033628D01*
X129401199Y-78032084D01*
X129428814Y-78004470D01*
X129490137Y-77970985D01*
X129516495Y-77968151D01*
X141356686Y-77968151D01*
X141423725Y-77987836D01*
X141469480Y-78040640D01*
X141472811Y-78050358D01*
X141473198Y-78050214D01*
X141526202Y-78192327D01*
X141526203Y-78192328D01*
X141526204Y-78192330D01*
X141612454Y-78307546D01*
X141727670Y-78393796D01*
X141727671Y-78393796D01*
X141727672Y-78393797D01*
X141862518Y-78444091D01*
X141862517Y-78444091D01*
X141869445Y-78444835D01*
X141922128Y-78450500D01*
X141922137Y-78450500D01*
X143917863Y-78450500D01*
X143917872Y-78450500D01*
X143977482Y-78444091D01*
X144112330Y-78393796D01*
X144227546Y-78307546D01*
X144313796Y-78192330D01*
X144364091Y-78057482D01*
X144370500Y-77997872D01*
X144370500Y-76888575D01*
X146300000Y-76888575D01*
X146300000Y-77111424D01*
X146329085Y-77332354D01*
X146329088Y-77332367D01*
X146386763Y-77547618D01*
X146472045Y-77753502D01*
X146472054Y-77753520D01*
X146583464Y-77946491D01*
X146583473Y-77946504D01*
X146634040Y-78012403D01*
X146634043Y-78012403D01*
X147284152Y-77362293D01*
X147291049Y-77378942D01*
X147378599Y-77509970D01*
X147490030Y-77621401D01*
X147621058Y-77708951D01*
X147637705Y-77715846D01*
X146987595Y-78365955D01*
X146987595Y-78365956D01*
X147053507Y-78416533D01*
X147246485Y-78527949D01*
X147246497Y-78527954D01*
X147452381Y-78613236D01*
X147667632Y-78670911D01*
X147667645Y-78670914D01*
X147888575Y-78700000D01*
X148111425Y-78700000D01*
X148332354Y-78670914D01*
X148332367Y-78670911D01*
X148547618Y-78613236D01*
X148753502Y-78527954D01*
X148753514Y-78527949D01*
X148946498Y-78416530D01*
X149012403Y-78365957D01*
X149012404Y-78365956D01*
X148362294Y-77715846D01*
X148378942Y-77708951D01*
X148509970Y-77621401D01*
X148621401Y-77509970D01*
X148708951Y-77378942D01*
X148715846Y-77362294D01*
X149365956Y-78012404D01*
X149365957Y-78012403D01*
X149416530Y-77946498D01*
X149527949Y-77753514D01*
X149527954Y-77753502D01*
X149613236Y-77547618D01*
X149670911Y-77332367D01*
X149670914Y-77332354D01*
X149700000Y-77111424D01*
X149700000Y-76888575D01*
X149670914Y-76667645D01*
X149670911Y-76667632D01*
X149613236Y-76452381D01*
X149527954Y-76246497D01*
X149527949Y-76246485D01*
X149416533Y-76053507D01*
X149365956Y-75987595D01*
X149365955Y-75987595D01*
X148715846Y-76637704D01*
X148708951Y-76621058D01*
X148621401Y-76490030D01*
X148509970Y-76378599D01*
X148378942Y-76291049D01*
X148362293Y-76284152D01*
X149012403Y-75634043D01*
X149012403Y-75634040D01*
X148946504Y-75583473D01*
X148946491Y-75583464D01*
X148753520Y-75472054D01*
X148753502Y-75472045D01*
X148547618Y-75386763D01*
X148332367Y-75329088D01*
X148332354Y-75329085D01*
X148111425Y-75300000D01*
X147888575Y-75300000D01*
X147667645Y-75329085D01*
X147667632Y-75329088D01*
X147452381Y-75386763D01*
X147246497Y-75472045D01*
X147246479Y-75472054D01*
X147053511Y-75583462D01*
X146987595Y-75634042D01*
X147637706Y-76284152D01*
X147621058Y-76291049D01*
X147490030Y-76378599D01*
X147378599Y-76490030D01*
X147291049Y-76621058D01*
X147284153Y-76637706D01*
X146634042Y-75987595D01*
X146583462Y-76053511D01*
X146472054Y-76246479D01*
X146472045Y-76246497D01*
X146386763Y-76452381D01*
X146329088Y-76667632D01*
X146329085Y-76667645D01*
X146300000Y-76888575D01*
X144370500Y-76888575D01*
X144370500Y-76002128D01*
X144364091Y-75942518D01*
X144313796Y-75807670D01*
X144227546Y-75692454D01*
X144112330Y-75606204D01*
X144112328Y-75606203D01*
X144112327Y-75606202D01*
X143977481Y-75555908D01*
X143977482Y-75555908D01*
X143917882Y-75549501D01*
X143917880Y-75549500D01*
X143917872Y-75549500D01*
X141922128Y-75549500D01*
X141922120Y-75549500D01*
X141922117Y-75549501D01*
X141862518Y-75555908D01*
X141727672Y-75606202D01*
X141727670Y-75606204D01*
X141612454Y-75692454D01*
X141526204Y-75807670D01*
X141526202Y-75807672D01*
X141475908Y-75942518D01*
X141469501Y-76002117D01*
X141469500Y-76002136D01*
X141469500Y-76343151D01*
X141449815Y-76410190D01*
X141397011Y-76455945D01*
X141345500Y-76467151D01*
X129516495Y-76467151D01*
X129449456Y-76447466D01*
X129428814Y-76430832D01*
X129399657Y-76401675D01*
X129312069Y-76343151D01*
X129227598Y-76286710D01*
X129130472Y-76246479D01*
X129036420Y-76207521D01*
X129036412Y-76207519D01*
X128833469Y-76167151D01*
X128833465Y-76167151D01*
X128626535Y-76167151D01*
X128626530Y-76167151D01*
X128423587Y-76207519D01*
X128423579Y-76207521D01*
X128232403Y-76286709D01*
X128060342Y-76401675D01*
X127914024Y-76547993D01*
X127799058Y-76720054D01*
X127719870Y-76911230D01*
X127719868Y-76911238D01*
X127679500Y-77114181D01*
X115010048Y-77114181D01*
X115010048Y-69378711D01*
X116149500Y-69378711D01*
X116149500Y-69621288D01*
X116181161Y-69861785D01*
X116243947Y-70096104D01*
X116336773Y-70320205D01*
X116336776Y-70320212D01*
X116458064Y-70530289D01*
X116458066Y-70530292D01*
X116458067Y-70530293D01*
X116605733Y-70722736D01*
X116605739Y-70722743D01*
X116777256Y-70894260D01*
X116777262Y-70894265D01*
X116969711Y-71041936D01*
X117179788Y-71163224D01*
X117403900Y-71256054D01*
X117638211Y-71318838D01*
X117818586Y-71342584D01*
X117878711Y-71350500D01*
X117878712Y-71350500D01*
X118121289Y-71350500D01*
X118169388Y-71344167D01*
X118361789Y-71318838D01*
X118596100Y-71256054D01*
X118820212Y-71163224D01*
X119030289Y-71041936D01*
X119222738Y-70894265D01*
X119394265Y-70722738D01*
X119541936Y-70530289D01*
X119663224Y-70320212D01*
X119756054Y-70096100D01*
X119818838Y-69861789D01*
X119850500Y-69621288D01*
X119850500Y-69378712D01*
X119850500Y-69378711D01*
X170149500Y-69378711D01*
X170149500Y-69621288D01*
X170181161Y-69861785D01*
X170243947Y-70096104D01*
X170336773Y-70320205D01*
X170336776Y-70320212D01*
X170458064Y-70530289D01*
X170458066Y-70530292D01*
X170458067Y-70530293D01*
X170605733Y-70722736D01*
X170605739Y-70722743D01*
X170777256Y-70894260D01*
X170777262Y-70894265D01*
X170969711Y-71041936D01*
X171179788Y-71163224D01*
X171403900Y-71256054D01*
X171638211Y-71318838D01*
X171818586Y-71342584D01*
X171878711Y-71350500D01*
X171878712Y-71350500D01*
X172121289Y-71350500D01*
X172169388Y-71344167D01*
X172361789Y-71318838D01*
X172596100Y-71256054D01*
X172820212Y-71163224D01*
X173030289Y-71041936D01*
X173222738Y-70894265D01*
X173394265Y-70722738D01*
X173541936Y-70530289D01*
X173663224Y-70320212D01*
X173756054Y-70096100D01*
X173818838Y-69861789D01*
X173850500Y-69621288D01*
X173850500Y-69378712D01*
X173818838Y-69138211D01*
X173756054Y-68903900D01*
X173663224Y-68679788D01*
X173541936Y-68469711D01*
X173394265Y-68277262D01*
X173394260Y-68277256D01*
X173222743Y-68105739D01*
X173222736Y-68105733D01*
X173030293Y-67958067D01*
X173030292Y-67958066D01*
X173030289Y-67958064D01*
X172820212Y-67836776D01*
X172820205Y-67836773D01*
X172596104Y-67743947D01*
X172361785Y-67681161D01*
X172121289Y-67649500D01*
X172121288Y-67649500D01*
X171878712Y-67649500D01*
X171878711Y-67649500D01*
X171638214Y-67681161D01*
X171403895Y-67743947D01*
X171179794Y-67836773D01*
X171179785Y-67836777D01*
X170969706Y-67958067D01*
X170777263Y-68105733D01*
X170777256Y-68105739D01*
X170605739Y-68277256D01*
X170605733Y-68277263D01*
X170458067Y-68469706D01*
X170336777Y-68679785D01*
X170336773Y-68679794D01*
X170243947Y-68903895D01*
X170181161Y-69138214D01*
X170149500Y-69378711D01*
X119850500Y-69378711D01*
X119818838Y-69138211D01*
X119756054Y-68903900D01*
X119663224Y-68679788D01*
X119541936Y-68469711D01*
X119394265Y-68277262D01*
X119394260Y-68277256D01*
X119222743Y-68105739D01*
X119222736Y-68105733D01*
X119030293Y-67958067D01*
X119030292Y-67958066D01*
X119030289Y-67958064D01*
X118820212Y-67836776D01*
X118820205Y-67836773D01*
X118596104Y-67743947D01*
X118361785Y-67681161D01*
X118121289Y-67649500D01*
X118121288Y-67649500D01*
X117878712Y-67649500D01*
X117878711Y-67649500D01*
X117638214Y-67681161D01*
X117403895Y-67743947D01*
X117179794Y-67836773D01*
X117179785Y-67836777D01*
X116969706Y-67958067D01*
X116777263Y-68105733D01*
X116777256Y-68105739D01*
X116605739Y-68277256D01*
X116605733Y-68277263D01*
X116458067Y-68469706D01*
X116336777Y-68679785D01*
X116336773Y-68679794D01*
X116243947Y-68903895D01*
X116181161Y-69138214D01*
X116149500Y-69378711D01*
X115010048Y-69378711D01*
X115010048Y-66757034D01*
X115029733Y-66689995D01*
X115082537Y-66644240D01*
X115134048Y-66633034D01*
X174845048Y-66633034D01*
X174912087Y-66652719D01*
G37*
%TD.AperFunction*%
%TD*%
M02*
